<?xml version="1.0" encoding="UTF-8" standalone="no"?>
<!-- Created with Inkscape (http://www.inkscape.org/) -->

<svg
   width="228.61618mm"
   height="67.258453mm"
   viewBox="0 0 228.61618 67.258454"
   version="1.1"
   id="svg5"
   xml:space="preserve"
   sodipodi:docname="logo_white.svg"
   inkscape:export-filename="../../../../Downloads/logo_white.svg"
   inkscape:export-xdpi="520.50018"
   inkscape:export-ydpi="520.50018"
   xmlns:inkscape="http://www.inkscape.org/namespaces/inkscape"
   xmlns:sodipodi="http://sodipodi.sourceforge.net/DTD/sodipodi-0.dtd"
   xmlns="http://www.w3.org/2000/svg"
   xmlns:svg="http://www.w3.org/2000/svg"><sodipodi:namedview
     id="namedview7"
     pagecolor="#505050"
     bordercolor="#eeeeee"
     borderopacity="1"
     inkscape:showpageshadow="0"
     inkscape:pageopacity="0"
     inkscape:pagecheckerboard="0"
     inkscape:deskcolor="#505050"
     inkscape:document-units="mm"
     showgrid="false" /><defs
     id="defs2"><rect
       x="1343.2242"
       y="833.39349"
       width="1464.8419"
       height="521.52441"
       id="rect570" /><rect
       x="40.625"
       y="403.90625"
       width="150.67007"
       height="26.844948"
       id="rect7904" /><rect
       x="192.33304"
       y="854.89209"
       width="266.57925"
       height="76.367531"
       id="rect8593" /></defs><g
     id="layer1-7"
     transform="translate(-41.960949,-64.915452)"><text
       xml:space="preserve"
       style="font-size:10.5833px;line-height:1.25;font-family:'Yu Gothic';-inkscape-font-specification:'Yu Gothic';stroke-width:0.264583"
       x="-0.37417734"
       y="83.441544"
       id="text24418"><tspan
         id="tspan24416"
         style="stroke-width:0.264583" /></text><text
       xml:space="preserve"
       transform="matrix(0.62750251,0,0,0.66588016,-103.33738,-506.56426)"
       id="text8591"
       style="font-style:normal;font-weight:normal;font-size:64px;line-height:1.25;font-family:sans-serif;letter-spacing:-0.196471px;word-spacing:0px;white-space:pre;shape-inside:url(#rect8593);fill:#000000;fill-opacity:1;stroke:none" /><text
       xml:space="preserve"
       style="font-style:normal;font-weight:normal;font-size:10.5833px;line-height:1.25;font-family:sans-serif;fill:#000000;fill-opacity:1;stroke:none;stroke-width:0.264583"
       x="123.42812"
       y="118.00417"
       id="text17302"><tspan
         id="tspan17300"
         style="stroke-width:0.264583" /></text><text
       xml:space="preserve"
       transform="matrix(0.26458333,0,0,0.26458333,-9.0933451,-49.76689)"
       id="text568"
       style="font-style:normal;font-weight:normal;font-size:40px;line-height:1.25;font-family:sans-serif;white-space:pre;shape-inside:url(#rect570);fill:#000000;fill-opacity:1;stroke:none" /><path
       id="rect31-3"
       clip-path="none"
       style="fill:none;stroke:#ffffff;stroke-width:2.7389;stroke-miterlimit:4;stroke-dasharray:none;stroke-opacity:1"
       d="m 85.584057,66.286045 h -36.20167 c -3.35278,0 -6.051989,2.733317 -6.051989,6.128477 v 35.080988 a 56.427294,55.901159 0 0 1 0.5676,-2.1815 56.427294,55.901159 0 0 1 0.96149,-2.98714 56.427294,55.901159 0 0 1 1.128419,-2.929804 56.427294,55.901159 0 0 1 1.29289,-2.862098 56.427294,55.901159 0 0 1 1.45296,-2.785968 56.427294,55.901159 0 0 1 1.60818,-2.700499 56.427294,55.901159 0 0 1 1.75849,-2.607066 56.427294,55.901159 0 0 1 1.90296,-2.505755 56.427294,55.901159 0 0 1 2.04204,-2.395534 56.427294,55.901159 0 0 1 2.17483,-2.278381 56.427294,55.901159 0 0 1 2.29976,-2.154365 56.427294,55.901159 0 0 1 2.41837,-2.022902 56.427294,55.901159 0 0 1 2.52915,-1.885487 56.427294,55.901159 0 0 1 2.63164,-1.742155 56.427294,55.901159 0 0 1 2.72583,-1.593405 56.427294,55.901159 0 0 1 2.81223,-1.439202 56.427294,55.901159 0 0 1 2.88933,-1.280561 56.427294,55.901159 0 0 1 2.95672,-1.11843 56.427294,55.901159 0 0 1 3.01573,-0.951894 56.427294,55.901159 0 0 1 3.06503,-0.783346 56.427294,55.901159 0 0 1 0.0198,-0.0034 z"
       inkscape:export-filename="/home/mattia/OneDrive/Documenti/Job/Adige Calculations/Logo/logoPNG_black_withLateralWords.png"
       inkscape:export-xdpi="500"
       inkscape:export-ydpi="500" /><path
       id="path1744-6"
       clip-path="none"
       style="fill:none;stroke:#ffffff;stroke-width:2.7389;stroke-miterlimit:4;stroke-dasharray:none;stroke-opacity:1"
       d="m 105.35895,105.00264 a 24.521262,25.251916 0 0 0 -1.55153,0.0597 24.521262,25.251916 0 0 0 -1.82244,0.2115 24.521262,25.251916 0 0 0 -1.80144,0.35094 24.521262,25.251916 0 0 0 -1.771693,0.48877 24.521262,25.251916 0 0 0 -1.73068,0.62374 24.521262,25.251916 0 0 0 -1.68089,0.75518 24.521262,25.251916 0 0 0 -1.62134,0.88221 24.521262,25.251916 0 0 0 -1.55252,1.00477 24.521262,25.251916 0 0 0 -1.47543,1.12142 24.521262,25.251916 0 0 0 -1.39,1.23163 24.521262,25.251916 0 0 0 -1.2968,1.33539 24.521262,25.251916 0 0 0 -1.19575,1.43127 24.521262,25.251916 0 0 0 -1.08888,1.51928 24.521262,25.251916 0 0 0 -0.97563,1.59932 24.521262,25.251916 0 0 0 -0.85704,1.66951 24.521262,25.251916 0 0 0 -0.73307,1.73081 24.521262,25.251916 0 0 0 -0.60569,1.78221 24.521262,25.251916 0 0 0 -0.47489,1.82419 24.521262,25.251916 0 0 0 -0.34065,1.85535 24.521262,25.251916 0 0 0 -0.20548,1.87657 24.521262,25.251916 0 0 0 -0.0684,1.88699 24.521262,25.251916 0 0 0 0.0205,0.56096 h 18.1677 c 3.352803,0 6.051993,-2.7333 6.051993,-6.12848 z"
       inkscape:export-filename="/home/mattia/OneDrive/Documenti/Job/Adige Calculations/Logo/logoPNG_black_withLateralWords.png"
       inkscape:export-xdpi="500"
       inkscape:export-ydpi="500" /><path
       id="path1750-7"
       clip-path="none"
       style="fill:none;stroke:#ffffff;stroke-width:2.7389;stroke-miterlimit:4;stroke-dasharray:none;stroke-opacity:1"
       d="m 104.64493,77.563412 a 51.018675,51.685321 0 0 0 -5.712313,0.32521 51.018675,51.685321 0 0 0 -5.64007,0.97066 51.018675,51.685321 0 0 0 -5.49805,1.604809 51.018675,51.685321 0 0 0 -5.28572,2.218076 51.018675,51.685321 0 0 0 -5.00707,2.803272 51.018675,51.685321 0 0 0 -4.66637,3.354343 51.018675,51.685321 0 0 0 -4.26568,3.861947 51.018675,51.685321 0 0 0 -3.81276,4.322044 51.018675,51.685321 0 0 0 -3.31052,4.726827 51.018675,51.685321 0 0 0 -2.76733,5.07279 51.018675,51.685321 0 0 0 -2.18947,5.35498 51.018675,51.685321 0 0 0 -1.58425,5.56946 51.018675,51.685321 0 0 0 -0.95807,5.71433 51.018675,51.685321 0 0 0 -0.32065,5.78642 51.018675,51.685321 0 0 0 0.0864,1.55588 h 13.7688 a 38.31953,39.328436 0 0 1 -0.0531,-0.90344 38.31953,39.328436 0 0 1 0.27918,-4.74069 38.31953,39.328436 0 0 1 0.83411,-4.67147 38.31953,39.328436 0 0 1 1.37682,-4.53408 38.31953,39.328436 0 0 1 1.89906,-4.33093 38.31953,39.328436 0 0 1 2.39393,-4.06404 38.31953,39.328436 0 0 1 2.85373,-3.73841 38.31953,39.328436 0 0 1 3.27198,-3.35826 38.31953,39.328436 0 0 1 3.64242,-2.928839 38.31953,39.328436 0 0 1 3.96015,-2.456802 38.31953,39.328436 0 0 1 4.21981,-1.949266 38.31953,39.328436 0 0 1 4.41797,-1.413006 38.31953,39.328436 0 0 1 4.551183,-0.855984 38.31953,39.328436 0 0 1 4.23005,-0.262445 V 77.57774 a 51.018675,51.685321 0 0 0 -0.71404,-0.01376 z"
       inkscape:export-filename="/home/mattia/OneDrive/Documenti/Job/Adige Calculations/Logo/logoPNG_black_withLateralWords.png"
       inkscape:export-xdpi="500"
       inkscape:export-ydpi="500" /><path
       id="path1747-5"
       clip-path="none"
       style="fill:none;stroke:#ffffff;stroke-width:2.7389;stroke-miterlimit:4;stroke-dasharray:none;stroke-opacity:1"
       d="m 85.584057,66.286045 a 56.427294,55.901159 0 0 0 -0.0198,0.0034 56.427294,55.901159 0 0 0 -3.06506,0.783363 56.427294,55.901159 0 0 0 -3.01574,0.951894 56.427294,55.901159 0 0 0 -2.95669,1.11843 56.427294,55.901159 0 0 0 -2.88935,1.280561 56.427294,55.901159 0 0 0 -2.81222,1.439202 56.427294,55.901159 0 0 0 -2.72584,1.593405 56.427294,55.901159 0 0 0 -2.63165,1.742155 56.427294,55.901159 0 0 0 -2.52915,1.885487 56.427294,55.901159 0 0 0 -2.41835,2.022902 56.427294,55.901159 0 0 0 -2.29975,2.154365 56.427294,55.901159 0 0 0 -2.17482,2.278381 56.427294,55.901159 0 0 0 -2.04208,2.395551 56.427294,55.901159 0 0 0 -1.90292,2.505772 56.427294,55.901159 0 0 0 -1.75853,2.607049 56.427294,55.901159 0 0 0 -1.60816,2.700482 56.427294,55.901159 0 0 0 -1.45296,2.785985 56.427294,55.901159 0 0 0 -1.29289,2.862098 56.427294,55.901159 0 0 0 -1.128399,2.929803 56.427294,55.901159 0 0 0 -0.96151,2.98712 56.427294,55.901159 0 0 0 -0.5676,2.18154 v 17.18043 c 0,3.39518 2.699189,6.12848 6.052009,6.12848 h 4.33057 a 51.018675,51.685321 0 0 1 -0.0863,-1.55584 51.018675,51.685321 0 0 1 0.32067,-5.78646 51.018675,51.685321 0 0 1 0.95805,-5.71429 51.018675,51.685321 0 0 1 1.58427,-5.56949 51.018675,51.685321 0 0 1 2.18943,-5.35497 51.018675,51.685321 0 0 1 2.76737,-5.07281 51.018675,51.685321 0 0 1 3.31052,-4.726806 51.018675,51.685321 0 0 1 3.81276,-4.322061 51.018675,51.685321 0 0 1 4.26568,-3.861947 51.018675,51.685321 0 0 1 4.66639,-3.354343 51.018675,51.685321 0 0 1 5.00703,-2.803238 51.018675,51.685321 0 0 1 5.28574,-2.218145 51.018675,51.685321 0 0 1 5.49805,-1.604757 51.018675,51.685321 0 0 1 5.64007,-0.970677 51.018675,51.685321 0 0 1 5.712323,-0.325193 51.018675,51.685321 0 0 1 0.71402,0.01376 V 72.41338 c 0,-3.395177 -2.69921,-6.128477 -6.051973,-6.128477 z"
       inkscape:export-filename="/home/mattia/OneDrive/Documenti/Job/Adige Calculations/Logo/logoPNG_black_withLateralWords.png"
       inkscape:export-xdpi="500"
       inkscape:export-ydpi="500" /><g
       aria-label="calculations"
       transform="matrix(0.50911191,0,0,0.48937232,110.10974,-79.52842)"
       id="text7902-3"
       style="font-size:18.9244px;line-height:1.25;white-space:pre;shape-inside:url(#rect7904);fill:#ffffff;stroke:#ffffff"><path
         d="m 50.429096,420.1232 q -0.683792,0.39734 -1.413786,0.59139 -0.720753,0.20329 -1.478468,0.20329 -2.402512,0 -3.760855,-1.44151 -1.349103,-1.4415 -1.349103,-3.99186 0,-2.55036 1.349103,-3.99187 1.358343,-1.4415 3.760855,-1.4415 0.748474,0 1.459987,0.19404 0.711514,0.19405 1.432267,0.60063 v 1.78341 q -0.674551,-0.60063 -1.358343,-0.8686 -0.674551,-0.26798 -1.533911,-0.26798 -1.598595,0 -2.457955,1.03493 -0.85936,1.03493 -0.85936,2.95694 0,1.91277 0.85936,2.95694 0.868601,1.03492 2.457955,1.03492 0.887081,0 1.589353,-0.26797 0.702273,-0.27721 1.302901,-0.85012 z"
         style="font-family:Consolas;-inkscape-font-specification:Consolas;fill:#ffffff;stroke:#ffffff"
         id="path1806-5" /><path
         d="m 58.505232,415.44755 h -0.563667 q -1.487709,0 -2.245424,0.5267 -0.748475,0.51747 -0.748475,1.55239 0,0.93329 0.563666,1.45075 0.563666,0.51747 1.561633,0.51747 1.404545,0 2.208463,-0.97025 0.803917,-0.97949 0.813157,-2.69821 v -0.37885 z m 3.298833,-0.70228 v 5.90464 h -1.70948 V 419.116 q -0.545185,0.92404 -1.376824,1.36758 -0.822398,0.4343 -2.005173,0.4343 -1.580113,0 -2.522637,-0.88708 -0.942524,-0.89632 -0.942524,-2.39327 0,-1.72796 1.155054,-2.62428 1.164294,-0.89633 3.409718,-0.89633 h 2.282386 v -0.26797 q -0.0092,-1.23822 -0.628349,-1.79264 -0.619109,-0.56367 -1.977452,-0.56367 -0.8686,0 -1.755681,0.24949 -0.887082,0.2495 -1.727961,0.73 v -1.70024 q 0.942524,-0.36038 1.801884,-0.53595 0.8686,-0.1848 1.681758,-0.1848 1.28442,0 2.189982,0.37885 0.914803,0.37886 1.478469,1.13658 0.351136,0.46202 0.498983,1.14581 0.147847,0.67455 0.147847,2.03289 z"
         style="font-family:Consolas;-inkscape-font-specification:Consolas;fill:#ffffff;stroke:#ffffff"
         id="path1808-6" /><path
         d="m 69.316534,416.89829 q 0,1.14582 0.41582,1.72796 0.425059,0.58215 1.247458,0.58215 h 1.986692 v 1.44151 h -2.15302 q -1.524671,0 -2.36555,-0.97949 -0.831639,-0.97948 -0.831639,-2.77213 v -9.39751 h -2.725927 v -1.33062 h 4.426166 z"
         style="font-family:Consolas;-inkscape-font-specification:Consolas;fill:#ffffff;stroke:#ffffff"
         id="path1810-2" /><path
         d="m 84.609447,420.1232 q -0.683791,0.39734 -1.413785,0.59139 -0.720754,0.20329 -1.478469,0.20329 -2.402512,0 -3.760855,-1.44151 -1.349103,-1.4415 -1.349103,-3.99186 0,-2.55036 1.349103,-3.99187 1.358343,-1.4415 3.760855,-1.4415 0.748475,0 1.459988,0.19404 0.711513,0.19405 1.432266,0.60063 v 1.78341 q -0.674551,-0.60063 -1.358343,-0.8686 -0.674551,-0.26798 -1.533911,-0.26798 -1.598595,0 -2.457955,1.03493 -0.85936,1.03493 -0.85936,2.95694 0,1.91277 0.85936,2.95694 0.868601,1.03492 2.457955,1.03492 0.887081,0 1.589354,-0.26797 0.702272,-0.27721 1.3029,-0.85012 z"
         style="font-family:Consolas;-inkscape-font-specification:Consolas;fill:#ffffff;stroke:#ffffff"
         id="path1812-9" /><path
         d="m 88.000683,416.73197 v -6.41286 h 1.700239 v 6.41286 q 0,1.3953 0.489743,2.05137 0.498983,0.65607 1.533911,0.65607 1.201256,0 1.838846,-0.84088 0.637589,-0.85012 0.637589,-2.43023 v -5.84919 h 1.70948 v 10.3308 h -1.70948 v -1.55239 q -0.452781,0.89632 -1.238217,1.35834 -0.776196,0.46202 -1.820365,0.46202 -1.589354,0 -2.36555,-1.03493 -0.776196,-1.04417 -0.776196,-3.15098 z"
         style="font-family:Consolas;-inkscape-font-specification:Consolas;fill:#ffffff;stroke:#ffffff"
         id="path1814-1" /><path
         d="m 103.49688,416.89829 q 0,1.14582 0.41582,1.72796 0.42506,0.58215 1.24746,0.58215 h 1.98669 v 1.44151 h -2.15302 q -1.52467,0 -2.36555,-0.97949 -0.83164,-0.97948 -0.83164,-2.77213 v -9.39751 h -2.725924 v -1.33062 h 4.426164 z"
         style="font-family:Consolas;-inkscape-font-specification:Consolas;fill:#ffffff;stroke:#ffffff"
         id="path1816-2" /><path
         d="m 115.47248,415.44755 h -0.56366 q -1.48771,0 -2.24543,0.5267 -0.74847,0.51747 -0.74847,1.55239 0,0.93329 0.56366,1.45075 0.56367,0.51747 1.56164,0.51747 1.40454,0 2.20846,-0.97025 0.80392,-0.97949 0.81316,-2.69821 v -0.37885 z m 3.29884,-0.70228 v 5.90464 h -1.70948 V 419.116 q -0.54519,0.92404 -1.37683,1.36758 -0.82239,0.4343 -2.00517,0.4343 -1.58011,0 -2.52264,-0.88708 -0.94252,-0.89632 -0.94252,-2.39327 0,-1.72796 1.15505,-2.62428 1.1643,-0.89633 3.40972,-0.89633 h 2.28239 v -0.26797 q -0.009,-1.23822 -0.62835,-1.79264 -0.61911,-0.56367 -1.97745,-0.56367 -0.8686,0 -1.75568,0.24949 -0.88709,0.2495 -1.72797,0.73 v -1.70024 q 0.94253,-0.36038 1.80189,-0.53595 0.8686,-0.1848 1.68176,-0.1848 1.28442,0 2.18998,0.37885 0.9148,0.37886 1.47847,1.13658 0.35113,0.46202 0.49898,1.14581 0.14785,0.67455 0.14785,2.03289 z"
         style="font-family:Consolas;-inkscape-font-specification:Consolas;fill:#ffffff;stroke:#ffffff"
         id="path1818-7" /><path
         d="m 126.05277,407.36217 v 2.93846 h 3.8625 v 1.32138 h -3.8625 v 5.61818 q 0,1.14581 0.4343,1.59859 0.4343,0.45279 1.51544,0.45279 h 1.91276 v 1.35834 h -2.07909 q -1.91277,0 -2.69821,-0.76696 -0.78543,-0.76695 -0.78543,-2.64276 v -5.61818 h -2.76289 v -1.32138 h 2.76289 v -2.93846 z"
         style="font-family:Consolas;-inkscape-font-specification:Consolas;fill:#ffffff;stroke:#ffffff"
         id="path1820-0" /><path
         d="m 134.13815,410.30063 h 4.35224 v 9.0279 h 3.37276 v 1.32138 h -8.44576 v -1.32138 h 3.37276 v -7.70652 h -2.652 z m 2.652,-4.02883 h 1.70024 v 2.15302 h -1.70024 z"
         style="font-family:Consolas;-inkscape-font-specification:Consolas;fill:#ffffff;stroke:#ffffff"
         id="path1822-9" /><path
         d="m 148.85815,411.49264 q -1.29366,0 -1.95897,1.00721 -0.66531,1.00721 -0.66531,2.98466 0,1.96821 0.66531,2.98466 0.66531,1.0072 1.95897,1.0072 1.3029,0 1.96821,-1.0072 0.66531,-1.01645 0.66531,-2.98466 0,-1.97745 -0.66531,-2.98466 -0.66531,-1.00721 -1.96821,-1.00721 z m 0,-1.4415 q 2.15302,0 3.28959,1.3953 1.14582,1.39531 1.14582,4.03807 0,2.652 -1.13658,4.04731 -1.13657,1.38606 -3.29883,1.38606 -2.15302,0 -3.28959,-1.38606 -1.13657,-1.39531 -1.13657,-4.04731 0,-2.64276 1.13657,-4.03807 1.13657,-1.3953 3.28959,-1.3953 z"
         style="font-family:Consolas;-inkscape-font-specification:Consolas;fill:#ffffff;stroke:#ffffff"
         id="path1824-3" /><path
         d="m 164.27119,414.23705 v 6.41286 h -1.70948 v -6.41286 q 0,-1.3953 -0.48975,-2.05137 -0.48974,-0.65608 -1.53391,-0.65608 -1.19201,0 -1.83884,0.85012 -0.63759,0.84088 -0.63759,2.421 v 5.84919 h -1.70024 v -10.34928 h 1.70024 v 1.55239 q 0.45278,-0.88708 1.22897,-1.33986 0.7762,-0.46202 1.83885,-0.46202 1.58011,0 2.35631,1.04416 0.78544,1.03493 0.78544,3.14175 z"
         style="font-family:Consolas;-inkscape-font-specification:Consolas;fill:#ffffff;stroke:#ffffff"
         id="path1826-6" /><path
         d="m 174.94389,410.661 v 1.66328 q -0.73,-0.42506 -1.46923,-0.63759 -0.73923,-0.21253 -1.50619,-0.21253 -1.15505,0 -1.72796,0.37886 -0.56367,0.36962 -0.56367,1.13657 0,0.69303 0.42506,1.03493 0.42506,0.3419 2.11606,0.66531 l 0.68379,0.12937 q 1.26594,0.24025 1.91277,0.961 0.65607,0.72076 0.65607,1.87581 0,1.53391 -1.09037,2.40251 -1.09037,0.85936 -3.03086,0.85936 -0.76696,0 -1.60783,-0.16633 -0.84088,-0.15708 -1.82037,-0.4805 v -1.75568 q 0.95177,0.48974 1.82037,0.73923 0.8686,0.24026 1.64479,0.24026 1.12733,0 1.74644,-0.45279 0.61911,-0.46202 0.61911,-1.28442 0,-1.18277 -2.2639,-1.63555 l -0.0739,-0.0185 -0.63759,-0.12937 q -1.46922,-0.28645 -2.14378,-0.961 -0.67455,-0.6838 -0.67455,-1.85733 0,-1.48771 1.00721,-2.29163 1.00721,-0.81315 2.87377,-0.81315 0.83164,0 1.5986,0.15708 0.76695,0.14785 1.50619,0.45278 z"
         style="font-family:Consolas;-inkscape-font-specification:Consolas;fill:#ffffff;stroke:#ffffff"
         id="path1828-0" /></g><g
       aria-label="Aδige "
       transform="matrix(1.6682729,0,0,1.7337866,-80.303674,-103.82743)"
       id="text546-6"
       style="font-size:30.399px;line-height:2.15;white-space:pre;fill:#ffffff;stroke-width:0.227991"><path
         d="m 124.80449,126.10292 h 2.37112 l 3.28309,-7.56935 h 10.45726 l 3.25269,7.56935 h 2.46232 l -9.66688,-22.46486 h -2.52312 z m 6.50539,-9.60608 4.40785,-10.30526 4.31666,10.30526 z"
         style="font-family:'URW Gothic';-inkscape-font-specification:'URW Gothic';fill:#ffffff"
         id="path1795-2" /><path
         d="m 157.53198,110.788 c -2.00632,-1.37099 -3.04292,-2.57478 -3.04292,-3.54451 0,-1.40442 1.53818,-2.20695 4.28015,-2.20695 h 0.26751 v -1.97288 c -1.63849,0.0334 -2.70853,0.16719 -3.64481,0.46814 -2.03976,0.63533 -3.21012,1.97288 -3.21012,3.67825 0,1.50475 0.83597,2.80886 2.60822,4.04609 -3.77857,0.56845 -6.55399,3.81201 -6.55399,7.65746 0,4.1464 3.44419,7.59058 7.59059,7.59058 4.17984,0 7.65746,-3.47762 7.65746,-7.65746 0,-2.87573 -1.23723,-4.88205 -4.24671,-6.92181 z m -1.67193,2.3407 c 3.04292,0 5.51738,2.54135 5.51738,5.71802 0,3.17668 -2.44102,5.71802 -5.51738,5.71802 -3.04292,0 -5.51739,-2.54134 -5.51739,-5.68458 0,-3.17668 2.47447,-5.75146 5.51739,-5.75146 z"
         style="font-size:33.4387px;font-family:'URW Gothic';-inkscape-font-specification:'URW Gothic';fill:#ffffff"
         id="path1797-6" /><path
         d="m 166.70328,126.10292 h 2.24953 v -16.62825 h -2.24953 z m 0,-18.63459 h 2.24953 v -3.83027 h -2.24953 z"
         style="font-family:'URW Gothic';-inkscape-font-specification:'URW Gothic';fill:#ffffff"
         id="path1799-1" /><path
         d="m 189.6241,109.47467 h -2.24953 v 2.9487 c -1.67194,-2.31032 -3.70868,-3.34389 -6.53578,-3.34389 -4.86384,0 -8.48132,3.76948 -8.48132,8.78531 0,4.86384 3.76947,8.63332 8.66371,8.63332 3.0095,0 5.04623,-1.21596 6.35339,-3.76948 v 1.12476 c 0,1.64155 -0.18239,2.67512 -0.66878,3.70868 -0.88157,1.91514 -2.8575,3.0095 -5.44142,3.0095 -1.85434,0 -3.28309,-0.54718 -4.46865,-1.67194 -0.57758,-0.51678 -0.94237,-1.03357 -1.64155,-2.27993 h -2.18872 c 1.21596,3.89108 4.16466,6.01901 8.35972,6.01901 2.88791,0 5.31983,-1.09437 6.74858,-2.97911 1.12476,-1.51995 1.55035,-3.28309 1.55035,-6.53578 z m -8.63332,1.67194 c 3.58708,0 6.38379,2.82711 6.38379,6.44459 0,3.89107 -2.73591,6.83978 -6.35339,6.83978 -3.64788,0 -6.38379,-2.88791 -6.38379,-6.74858 0,-3.79988 2.67511,-6.53579 6.35339,-6.53579 z"
         style="font-family:'URW Gothic';-inkscape-font-specification:'URW Gothic';fill:#ffffff"
         id="path1801-8" /><path
         d="m 210.32577,118.53357 c 0,-2.27993 -0.30399,-3.67828 -1.12477,-5.13743 -1.48955,-2.67511 -4.37745,-4.31666 -7.56935,-4.31666 -4.83344,0 -8.60292,3.79988 -8.60292,8.63332 0,4.92463 3.86068,8.78531 8.78532,8.78531 3.61748,0 6.87017,-2.34073 8.08613,-5.86701 h -2.34072 c -0.94237,2.27993 -3.2831,3.79988 -5.80621,3.79988 -3.43509,0 -6.2926,-2.61432 -6.47499,-5.89741 z m -14.98671,-2.03673 c 0.60798,-3.1919 3.1311,-5.35023 6.29259,-5.35023 3.2223,0 5.65422,2.00634 6.44459,5.35023 z"
         style="font-family:'URW Gothic';-inkscape-font-specification:'URW Gothic';fill:#ffffff"
         id="path1803-7" /></g></g></svg>
