<?xml version="1.0" encoding="UTF-8" standalone="no"?>
<!-- Created with Inkscape (http://www.inkscape.org/) -->

<svg
   width="312.55441mm"
   height="100.13598mm"
   viewBox="0 0 312.55441 100.13598"
   version="1.1"
   id="svg5"
   xml:space="preserve"
   sodipodi:docname="powered_by_adige.svg"
   inkscape:export-filename="powered_by_adige.svg"
   inkscape:export-xdpi="520.50018"
   inkscape:export-ydpi="520.50018"
   xmlns:inkscape="http://www.inkscape.org/namespaces/inkscape"
   xmlns:sodipodi="http://sodipodi.sourceforge.net/DTD/sodipodi-0.dtd"
   xmlns="http://www.w3.org/2000/svg"
   xmlns:svg="http://www.w3.org/2000/svg"><sodipodi:namedview
     id="namedview7"
     pagecolor="#505050"
     bordercolor="#eeeeee"
     borderopacity="1"
     inkscape:showpageshadow="0"
     inkscape:pageopacity="0"
     inkscape:pagecheckerboard="0"
     inkscape:deskcolor="#505050"
     inkscape:document-units="mm"
     showgrid="false" /><defs
     id="defs2"><rect
       x="1343.2242"
       y="833.39349"
       width="1464.8419"
       height="521.52441"
       id="rect570" /><rect
       x="40.625"
       y="403.90625"
       width="150.67007"
       height="26.844948"
       id="rect7904" /><rect
       x="192.33304"
       y="854.89209"
       width="266.57925"
       height="76.367531"
       id="rect8593" /></defs><g
     id="layer1-7"
     transform="translate(6.5391034,-46.850619)"><text
       xml:space="preserve"
       style="font-size:10.5833px;line-height:1.25;font-family:'Yu Gothic';-inkscape-font-specification:'Yu Gothic';stroke-width:0.264583"
       x="-0.37417734"
       y="83.441544"
       id="text24418"><tspan
         id="tspan24416"
         style="stroke-width:0.264583" /></text><path
       id="rect31"
       clip-path="none"
       style="fill:none;stroke:#000000;stroke-width:1.61044;stroke-miterlimit:4;stroke-dasharray:none;stroke-opacity:1"
       d="m 244.99777,97.513518 h -21.52819 c -1.99381,0 -3.59896,1.58909 -3.59896,3.562962 v 20.39531 a 33.55584,32.499688 0 0 1 0.33754,-1.26828 33.55584,32.499688 0 0 1 0.57177,-1.73666 33.55584,32.499688 0 0 1 0.67104,-1.70332 33.55584,32.499688 0 0 1 0.76885,-1.66396 33.55584,32.499688 0 0 1 0.86404,-1.6197 33.55584,32.499688 0 0 1 0.95634,-1.57001 33.55584,32.499688 0 0 1 1.04573,-1.51569 33.55584,32.499688 0 0 1 1.13164,-1.45679 33.55584,32.499688 0 0 1 1.21435,-1.39271 33.55584,32.499688 0 0 1 1.29331,-1.3246 33.55584,32.499688 0 0 1 1.36761,-1.2525 33.55584,32.499688 0 0 1 1.43814,-1.17607 33.55584,32.499688 0 0 1 1.50402,-1.09618 33.55584,32.499688 0 0 1 1.56497,-1.01285 33.55584,32.499688 0 0 1 1.62098,-0.92637 33.55584,32.499688 0 0 1 1.67236,-0.836722 33.55584,32.499688 0 0 1 1.71821,-0.74449 33.55584,32.499688 0 0 1 1.75828,-0.65023 33.55584,32.499688 0 0 1 1.79338,-0.55341 33.55584,32.499688 0 0 1 1.82269,-0.45542 33.55584,32.499688 0 0 1 0.0118,-0.002 z"
       inkscape:export-filename="/home/mattia/OneDrive/Documenti/Job/Adige Calculations/Logo/logoPNG_black_withLateralWords.png"
       inkscape:export-xdpi="500"
       inkscape:export-ydpi="500" /><path
       id="path1744"
       clip-path="none"
       style="fill:none;stroke:#000000;stroke-width:1.61044;stroke-miterlimit:4;stroke-dasharray:none;stroke-opacity:1"
       d="m 256.75738,120.02249 a 14.582155,14.680901 0 0 0 -0.92265,0.0347 14.582155,14.680901 0 0 0 -1.08376,0.12296 14.582155,14.680901 0 0 0 -1.07127,0.20403 14.582155,14.680901 0 0 0 -1.05358,0.28416 14.582155,14.680901 0 0 0 -1.02919,0.36263 14.582155,14.680901 0 0 0 -0.99958,0.43904 14.582155,14.680901 0 0 0 -0.96417,0.5129 14.582155,14.680901 0 0 0 -0.92324,0.58415 14.582155,14.680901 0 0 0 -0.8774,0.65197 14.582155,14.680901 0 0 0 -0.8266,0.71604 14.582155,14.680901 0 0 0 -0.77117,0.77637 14.582155,14.680901 0 0 0 -0.71108,0.83211 14.582155,14.680901 0 0 0 -0.64753,0.88327 14.582155,14.680901 0 0 0 -0.58018,0.92981 14.582155,14.680901 0 0 0 -0.50966,0.97062 14.582155,14.680901 0 0 0 -0.43594,1.00625 14.582155,14.680901 0 0 0 -0.36019,1.03614 14.582155,14.680901 0 0 0 -0.2824,1.06054 14.582155,14.680901 0 0 0 -0.20258,1.07866 14.582155,14.680901 0 0 0 -0.12219,1.091 14.582155,14.680901 0 0 0 -0.0407,1.09705 14.582155,14.680901 0 0 0 0.0122,0.32613 h 10.80386 c 1.99382,0 3.59896,-1.58908 3.59896,-3.56296 z"
       inkscape:export-filename="/home/mattia/OneDrive/Documenti/Job/Adige Calculations/Logo/logoPNG_black_withLateralWords.png"
       inkscape:export-xdpi="500"
       inkscape:export-ydpi="500" /><path
       id="path1750"
       clip-path="none"
       style="fill:none;stroke:#000000;stroke-width:1.61044;stroke-miterlimit:4;stroke-dasharray:none;stroke-opacity:1"
       d="m 256.33277,104.06993 a 30.339475,30.048694 0 0 0 -3.39696,0.18907 30.339475,30.048694 0 0 0 -3.354,0.56432 30.339475,30.048694 0 0 0 -3.26955,0.933 30.339475,30.048694 0 0 0 -3.14328,1.28954 30.339475,30.048694 0 0 0 -2.97757,1.62976 30.339475,30.048694 0 0 0 -2.77497,1.95014 30.339475,30.048694 0 0 0 -2.53669,2.24525 30.339475,30.048694 0 0 0 -2.26735,2.51274 30.339475,30.048694 0 0 0 -1.96868,2.74807 30.339475,30.048694 0 0 0 -1.64566,2.94921 30.339475,30.048694 0 0 0 -1.30202,3.11327 30.339475,30.048694 0 0 0 -0.94211,3.23796 30.339475,30.048694 0 0 0 -0.56974,3.32218 30.339475,30.048694 0 0 0 -0.19068,3.3641 30.339475,30.048694 0 0 0 0.0514,0.90455 h 8.18795 a 22.787625,22.864676 0 0 1 -0.0316,-0.52524 22.787625,22.864676 0 0 1 0.16602,-2.75613 22.787625,22.864676 0 0 1 0.49602,-2.71589 22.787625,22.864676 0 0 1 0.81876,-2.63601 22.787625,22.864676 0 0 1 1.12932,-2.51791 22.787625,22.864676 0 0 1 1.42361,-2.36274 22.787625,22.864676 0 0 1 1.69704,-2.17343 22.787625,22.864676 0 0 1 1.94576,-1.95242 22.787625,22.864676 0 0 1 2.16605,-1.70276 22.787625,22.864676 0 0 1 2.355,-1.42833 22.787625,22.864676 0 0 1 2.50941,-1.13326 22.787625,22.864676 0 0 1 2.62725,-0.82149 22.787625,22.864676 0 0 1 2.70647,-0.49765 22.787625,22.864676 0 0 1 2.5155,-0.15258 v -7.56899 a 30.339475,30.048694 0 0 0 -0.42462,-0.008 z"
       inkscape:export-filename="/home/mattia/OneDrive/Documenti/Job/Adige Calculations/Logo/logoPNG_black_withLateralWords.png"
       inkscape:export-xdpi="500"
       inkscape:export-ydpi="500" /><path
       id="path1747"
       clip-path="none"
       style="fill:none;stroke:#000000;stroke-width:1.61044;stroke-miterlimit:4;stroke-dasharray:none;stroke-opacity:1"
       d="m 244.99777,97.513518 a 33.55584,32.499688 0 0 0 -0.0118,0.002 33.55584,32.499688 0 0 0 -1.82271,0.45543 33.55584,32.499688 0 0 0 -1.79338,0.55341 33.55584,32.499688 0 0 0 -1.75827,0.65023 33.55584,32.499688 0 0 0 -1.71822,0.74449 33.55584,32.499688 0 0 0 -1.67235,0.836722 33.55584,32.499688 0 0 0 -1.62099,0.92637 33.55584,32.499688 0 0 0 -1.56497,1.01285 33.55584,32.499688 0 0 0 -1.50402,1.09618 33.55584,32.499688 0 0 0 -1.43813,1.17607 33.55584,32.499688 0 0 0 -1.3676,1.2525 33.55584,32.499688 0 0 0 -1.29331,1.3246 33.55584,32.499688 0 0 0 -1.21437,1.39272 33.55584,32.499688 0 0 0 -1.13162,1.4568 33.55584,32.499688 0 0 0 -1.04575,1.51568 33.55584,32.499688 0 0 0 -0.95633,1.57 33.55584,32.499688 0 0 0 -0.86404,1.61971 33.55584,32.499688 0 0 0 -0.76885,1.66396 33.55584,32.499688 0 0 0 -0.67103,1.70332 33.55584,32.499688 0 0 0 -0.57178,1.73665 33.55584,32.499688 0 0 0 -0.33754,1.2683 v 9.98832 c 0,1.97388 1.60514,3.56296 3.59897,3.56296 h 2.57528 a 30.339475,30.048694 0 0 1 -0.0513,-0.90453 30.339475,30.048694 0 0 1 0.19069,-3.36412 30.339475,30.048694 0 0 1 0.56973,-3.32216 30.339475,30.048694 0 0 1 0.94212,-3.23798 30.339475,30.048694 0 0 1 1.302,-3.11326 30.339475,30.048694 0 0 1 1.64568,-2.94922 30.339475,30.048694 0 0 1 1.96868,-2.74806 30.339475,30.048694 0 0 1 2.26735,-2.51275 30.339475,30.048694 0 0 1 2.53669,-2.24525 30.339475,30.048694 0 0 1 2.77498,-1.95014 30.339475,30.048694 0 0 1 2.97755,-1.62974 30.339475,30.048694 0 0 1 3.14329,-1.28958 30.339475,30.048694 0 0 1 3.26955,-0.93297 30.339475,30.048694 0 0 1 3.354,-0.56433 30.339475,30.048694 0 0 1 3.39697,-0.18906 30.339475,30.048694 0 0 1 0.42461,0.008 v -3.0018 c 0,-1.973882 -1.60515,-3.562962 -3.59895,-3.562962 z"
       inkscape:export-filename="/home/mattia/OneDrive/Documenti/Job/Adige Calculations/Logo/logoPNG_black_withLateralWords.png"
       inkscape:export-xdpi="500"
       inkscape:export-ydpi="500" /><text
       xml:space="preserve"
       transform="matrix(0.62750251,0,0,0.66588016,-103.33738,-506.56426)"
       id="text8591"
       style="font-style:normal;font-weight:normal;font-size:64px;line-height:1.25;font-family:sans-serif;letter-spacing:-0.196471px;word-spacing:0px;white-space:pre;shape-inside:url(#rect8593);fill:#000000;fill-opacity:1;stroke:none" /><text
       xml:space="preserve"
       style="font-style:normal;font-weight:normal;font-size:10.5833px;line-height:1.25;font-family:sans-serif;fill:#000000;fill-opacity:1;stroke:none;stroke-width:0.264583"
       x="123.42812"
       y="118.00417"
       id="text17302"><tspan
         id="tspan17300"
         style="stroke-width:0.264583" /></text><text
       xml:space="preserve"
       style="font-style:normal;font-weight:normal;font-size:20.6776px;line-height:0;font-family:sans-serif;white-space:pre;inline-size:132.872;fill:#000000;fill-opacity:1;stroke:#ffffff;stroke-width:0.373617"
       x="95.754318"
       y="144.93924"
       id="text28274"
       transform="matrix(0.89831852,0,0,0.98899133,-36.099713,-29.376406)"
       inkscape:export-filename="/home/mattia/OneDrive/Documenti/Job/Adige Calculations/Logo/logoPNG_black_withLateralWords.png"
       inkscape:export-xdpi="500"
       inkscape:export-ydpi="500"><tspan
         x="95.754318"
         y="144.93924"
         id="tspan1362"><tspan
           style="font-size:15.3452px;font-family:'URW Gothic';-inkscape-font-specification:'URW Gothic'"
           id="tspan1360">Powered
</tspan></tspan><tspan
         x="95.754318"
         y="146.64307"
         id="tspan1366"><tspan
           style="font-size:15.3452px;font-family:'URW Gothic';-inkscape-font-specification:'URW Gothic'"
           id="tspan1364">
</tspan></tspan><tspan
         x="95.754318"
         y="161.2704"
         id="tspan1374"><tspan
           style="font-size:15.3452px;font-family:'URW Gothic';-inkscape-font-specification:'URW Gothic'"
           id="tspan1368">           b</tspan><tspan
           style="font-size:15.3452px;font-family:'URW Gothic';-inkscape-font-specification:'URW Gothic'"
           id="tspan1370">y</tspan><tspan
           style="line-height:1.25"
           id="tspan1372">
</tspan></tspan><tspan
         x="95.754318"
         y="187.1174"
         id="tspan1380"><tspan
           style="line-height:1.25"
           id="tspan1376">        </tspan><tspan
           style="font-family:'URW Gothic';-inkscape-font-specification:'URW Gothic'"
           id="tspan1378"> </tspan></tspan></text><text
       xml:space="preserve"
       style="font-style:normal;font-weight:normal;font-size:26.6013px;line-height:0;font-family:sans-serif;fill:#000000;fill-opacity:1;stroke:#ffffff;stroke-width:0.480651"
       x="-1.8896313"
       y="83.485138"
       id="text28274-5"
       transform="scale(0.97913983,1.0213046)"
       inkscape:export-filename="/home/mattia/OneDrive/Documenti/Job/Adige Calculations/Logo/logoPNG_black_withLateralWords.png"
       inkscape:export-xdpi="500"
       inkscape:export-ydpi="500"><tspan
         id="tspan28272-3"
         style="font-style:normal;font-variant:normal;font-weight:normal;font-stretch:normal;font-size:26.6013px;line-height:1.25;font-family:'URW Gothic';-inkscape-font-specification:'URW Gothic';fill:#000000;stroke:#ffffff;stroke-width:0.480651"
         x="-1.8896313"
         y="83.485138">OpenFoam<tspan
   style="font-size:11.9706px;line-height:1.25;baseline-shift:super;stroke-width:0.480651"
   id="tspan556">®</tspan> Handbook</tspan></text><g
       aria-label="calculations"
       transform="matrix(0.31180939,0,0,0.30457506,112.21586,6.0054541)"
       id="text7902"
       style="font-size:18.9244px;line-height:1.25;white-space:pre;shape-inside:url(#rect7904);stroke:#000000"><path
         d="m 50.429096,420.1232 q -0.683792,0.39734 -1.413786,0.59139 -0.720753,0.20329 -1.478468,0.20329 -2.402512,0 -3.760855,-1.44151 -1.349103,-1.4415 -1.349103,-3.99186 0,-2.55036 1.349103,-3.99187 1.358343,-1.4415 3.760855,-1.4415 0.748474,0 1.459987,0.19404 0.711514,0.19405 1.432267,0.60063 v 1.78341 q -0.674551,-0.60063 -1.358343,-0.8686 -0.674551,-0.26798 -1.533911,-0.26798 -1.598595,0 -2.457955,1.03493 -0.85936,1.03493 -0.85936,2.95694 0,1.91277 0.85936,2.95694 0.868601,1.03492 2.457955,1.03492 0.887081,0 1.589353,-0.26797 0.702273,-0.27721 1.302901,-0.85012 z"
         style="font-family:Consolas;-inkscape-font-specification:Consolas"
         id="path1806" /><path
         d="m 58.505232,415.44755 h -0.563667 q -1.487709,0 -2.245424,0.5267 -0.748475,0.51747 -0.748475,1.55239 0,0.93329 0.563666,1.45075 0.563666,0.51747 1.561633,0.51747 1.404545,0 2.208463,-0.97025 0.803917,-0.97949 0.813157,-2.69821 v -0.37885 z m 3.298833,-0.70228 v 5.90464 h -1.70948 V 419.116 q -0.545185,0.92404 -1.376824,1.36758 -0.822398,0.4343 -2.005173,0.4343 -1.580113,0 -2.522637,-0.88708 -0.942524,-0.89632 -0.942524,-2.39327 0,-1.72796 1.155054,-2.62428 1.164294,-0.89633 3.409718,-0.89633 h 2.282386 v -0.26797 q -0.0092,-1.23822 -0.628349,-1.79264 -0.619109,-0.56367 -1.977452,-0.56367 -0.8686,0 -1.755681,0.24949 -0.887082,0.2495 -1.727961,0.73 v -1.70024 q 0.942524,-0.36038 1.801884,-0.53595 0.8686,-0.1848 1.681758,-0.1848 1.28442,0 2.189982,0.37885 0.914803,0.37886 1.478469,1.13658 0.351136,0.46202 0.498983,1.14581 0.147847,0.67455 0.147847,2.03289 z"
         style="font-family:Consolas;-inkscape-font-specification:Consolas"
         id="path1808" /><path
         d="m 69.316534,416.89829 q 0,1.14582 0.41582,1.72796 0.425059,0.58215 1.247458,0.58215 h 1.986692 v 1.44151 h -2.15302 q -1.524671,0 -2.36555,-0.97949 -0.831639,-0.97948 -0.831639,-2.77213 v -9.39751 h -2.725927 v -1.33062 h 4.426166 z"
         style="font-family:Consolas;-inkscape-font-specification:Consolas"
         id="path1810" /><path
         d="m 84.609447,420.1232 q -0.683791,0.39734 -1.413785,0.59139 -0.720754,0.20329 -1.478469,0.20329 -2.402512,0 -3.760855,-1.44151 -1.349103,-1.4415 -1.349103,-3.99186 0,-2.55036 1.349103,-3.99187 1.358343,-1.4415 3.760855,-1.4415 0.748475,0 1.459988,0.19404 0.711513,0.19405 1.432266,0.60063 v 1.78341 q -0.674551,-0.60063 -1.358343,-0.8686 -0.674551,-0.26798 -1.533911,-0.26798 -1.598595,0 -2.457955,1.03493 -0.85936,1.03493 -0.85936,2.95694 0,1.91277 0.85936,2.95694 0.868601,1.03492 2.457955,1.03492 0.887081,0 1.589354,-0.26797 0.702272,-0.27721 1.3029,-0.85012 z"
         style="font-family:Consolas;-inkscape-font-specification:Consolas"
         id="path1812" /><path
         d="m 88.000683,416.73197 v -6.41286 h 1.700239 v 6.41286 q 0,1.3953 0.489743,2.05137 0.498983,0.65607 1.533911,0.65607 1.201256,0 1.838846,-0.84088 0.637589,-0.85012 0.637589,-2.43023 v -5.84919 h 1.70948 v 10.3308 h -1.70948 v -1.55239 q -0.452781,0.89632 -1.238217,1.35834 -0.776196,0.46202 -1.820365,0.46202 -1.589354,0 -2.36555,-1.03493 -0.776196,-1.04417 -0.776196,-3.15098 z"
         style="font-family:Consolas;-inkscape-font-specification:Consolas"
         id="path1814" /><path
         d="m 103.49688,416.89829 q 0,1.14582 0.41582,1.72796 0.42506,0.58215 1.24746,0.58215 h 1.98669 v 1.44151 h -2.15302 q -1.52467,0 -2.36555,-0.97949 -0.83164,-0.97948 -0.83164,-2.77213 v -9.39751 h -2.725924 v -1.33062 h 4.426164 z"
         style="font-family:Consolas;-inkscape-font-specification:Consolas"
         id="path1816" /><path
         d="m 115.47248,415.44755 h -0.56366 q -1.48771,0 -2.24543,0.5267 -0.74847,0.51747 -0.74847,1.55239 0,0.93329 0.56366,1.45075 0.56367,0.51747 1.56164,0.51747 1.40454,0 2.20846,-0.97025 0.80392,-0.97949 0.81316,-2.69821 v -0.37885 z m 3.29884,-0.70228 v 5.90464 h -1.70948 V 419.116 q -0.54519,0.92404 -1.37683,1.36758 -0.82239,0.4343 -2.00517,0.4343 -1.58011,0 -2.52264,-0.88708 -0.94252,-0.89632 -0.94252,-2.39327 0,-1.72796 1.15505,-2.62428 1.1643,-0.89633 3.40972,-0.89633 h 2.28239 v -0.26797 q -0.009,-1.23822 -0.62835,-1.79264 -0.61911,-0.56367 -1.97745,-0.56367 -0.8686,0 -1.75568,0.24949 -0.88709,0.2495 -1.72797,0.73 v -1.70024 q 0.94253,-0.36038 1.80189,-0.53595 0.8686,-0.1848 1.68176,-0.1848 1.28442,0 2.18998,0.37885 0.9148,0.37886 1.47847,1.13658 0.35113,0.46202 0.49898,1.14581 0.14785,0.67455 0.14785,2.03289 z"
         style="font-family:Consolas;-inkscape-font-specification:Consolas"
         id="path1818" /><path
         d="m 126.05277,407.36217 v 2.93846 h 3.8625 v 1.32138 h -3.8625 v 5.61818 q 0,1.14581 0.4343,1.59859 0.4343,0.45279 1.51544,0.45279 h 1.91276 v 1.35834 h -2.07909 q -1.91277,0 -2.69821,-0.76696 -0.78543,-0.76695 -0.78543,-2.64276 v -5.61818 h -2.76289 v -1.32138 h 2.76289 v -2.93846 z"
         style="font-family:Consolas;-inkscape-font-specification:Consolas"
         id="path1820" /><path
         d="m 134.13815,410.30063 h 4.35224 v 9.0279 h 3.37276 v 1.32138 h -8.44576 v -1.32138 h 3.37276 v -7.70652 h -2.652 z m 2.652,-4.02883 h 1.70024 v 2.15302 h -1.70024 z"
         style="font-family:Consolas;-inkscape-font-specification:Consolas"
         id="path1822" /><path
         d="m 148.85815,411.49264 q -1.29366,0 -1.95897,1.00721 -0.66531,1.00721 -0.66531,2.98466 0,1.96821 0.66531,2.98466 0.66531,1.0072 1.95897,1.0072 1.3029,0 1.96821,-1.0072 0.66531,-1.01645 0.66531,-2.98466 0,-1.97745 -0.66531,-2.98466 -0.66531,-1.00721 -1.96821,-1.00721 z m 0,-1.4415 q 2.15302,0 3.28959,1.3953 1.14582,1.39531 1.14582,4.03807 0,2.652 -1.13658,4.04731 -1.13657,1.38606 -3.29883,1.38606 -2.15302,0 -3.28959,-1.38606 -1.13657,-1.39531 -1.13657,-4.04731 0,-2.64276 1.13657,-4.03807 1.13657,-1.3953 3.28959,-1.3953 z"
         style="font-family:Consolas;-inkscape-font-specification:Consolas"
         id="path1824" /><path
         d="m 164.27119,414.23705 v 6.41286 h -1.70948 v -6.41286 q 0,-1.3953 -0.48975,-2.05137 -0.48974,-0.65608 -1.53391,-0.65608 -1.19201,0 -1.83884,0.85012 -0.63759,0.84088 -0.63759,2.421 v 5.84919 h -1.70024 v -10.34928 h 1.70024 v 1.55239 q 0.45278,-0.88708 1.22897,-1.33986 0.7762,-0.46202 1.83885,-0.46202 1.58011,0 2.35631,1.04416 0.78544,1.03493 0.78544,3.14175 z"
         style="font-family:Consolas;-inkscape-font-specification:Consolas"
         id="path1826" /><path
         d="m 174.94389,410.661 v 1.66328 q -0.73,-0.42506 -1.46923,-0.63759 -0.73923,-0.21253 -1.50619,-0.21253 -1.15505,0 -1.72796,0.37886 -0.56367,0.36962 -0.56367,1.13657 0,0.69303 0.42506,1.03493 0.42506,0.3419 2.11606,0.66531 l 0.68379,0.12937 q 1.26594,0.24025 1.91277,0.961 0.65607,0.72076 0.65607,1.87581 0,1.53391 -1.09037,2.40251 -1.09037,0.85936 -3.03086,0.85936 -0.76696,0 -1.60783,-0.16633 -0.84088,-0.15708 -1.82037,-0.4805 v -1.75568 q 0.95177,0.48974 1.82037,0.73923 0.8686,0.24026 1.64479,0.24026 1.12733,0 1.74644,-0.45279 0.61911,-0.46202 0.61911,-1.28442 0,-1.18277 -2.2639,-1.63555 l -0.0739,-0.0185 -0.63759,-0.12937 q -1.46922,-0.28645 -2.14378,-0.961 -0.67455,-0.6838 -0.67455,-1.85733 0,-1.48771 1.00721,-2.29163 1.00721,-0.81315 2.87377,-0.81315 0.83164,0 1.5986,0.15708 0.76695,0.14785 1.50619,0.45278 z"
         style="font-family:Consolas;-inkscape-font-specification:Consolas"
         id="path1828" /></g><g
       aria-label="Aδige "
       transform="scale(0.99207837,1.0079849)"
       id="text546"
       style="font-size:30.399px;line-height:2.15;white-space:pre;stroke-width:0.227991"><path
         d="m 124.80449,126.10292 h 2.37112 l 3.28309,-7.56935 h 10.45726 l 3.25269,7.56935 h 2.46232 l -9.66688,-22.46486 h -2.52312 z m 6.50539,-9.60608 4.40785,-10.30526 4.31666,10.30526 z"
         style="font-family:'URW Gothic';-inkscape-font-specification:'URW Gothic'"
         id="path1795" /><path
         d="m 157.53198,110.788 c -2.00632,-1.37099 -3.04292,-2.57478 -3.04292,-3.54451 0,-1.40442 1.53818,-2.20695 4.28015,-2.20695 h 0.26751 v -1.97288 c -1.63849,0.0334 -2.70853,0.16719 -3.64481,0.46814 -2.03976,0.63533 -3.21012,1.97288 -3.21012,3.67825 0,1.50475 0.83597,2.80886 2.60822,4.04609 -3.77857,0.56845 -6.55399,3.81201 -6.55399,7.65746 0,4.1464 3.44419,7.59058 7.59059,7.59058 4.17984,0 7.65746,-3.47762 7.65746,-7.65746 0,-2.87573 -1.23723,-4.88205 -4.24671,-6.92181 z m -1.67193,2.3407 c 3.04292,0 5.51738,2.54135 5.51738,5.71802 0,3.17668 -2.44102,5.71802 -5.51738,5.71802 -3.04292,0 -5.51739,-2.54134 -5.51739,-5.68458 0,-3.17668 2.47447,-5.75146 5.51739,-5.75146 z"
         style="font-size:33.4387px;font-family:'URW Gothic';-inkscape-font-specification:'URW Gothic'"
         id="path1797" /><path
         d="m 166.70328,126.10292 h 2.24953 v -16.62825 h -2.24953 z m 0,-18.63459 h 2.24953 v -3.83027 h -2.24953 z"
         style="font-family:'URW Gothic';-inkscape-font-specification:'URW Gothic'"
         id="path1799" /><path
         d="m 189.6241,109.47467 h -2.24953 v 2.9487 c -1.67194,-2.31032 -3.70868,-3.34389 -6.53578,-3.34389 -4.86384,0 -8.48132,3.76948 -8.48132,8.78531 0,4.86384 3.76947,8.63332 8.66371,8.63332 3.0095,0 5.04623,-1.21596 6.35339,-3.76948 v 1.12476 c 0,1.64155 -0.18239,2.67512 -0.66878,3.70868 -0.88157,1.91514 -2.8575,3.0095 -5.44142,3.0095 -1.85434,0 -3.28309,-0.54718 -4.46865,-1.67194 -0.57758,-0.51678 -0.94237,-1.03357 -1.64155,-2.27993 h -2.18872 c 1.21596,3.89108 4.16466,6.01901 8.35972,6.01901 2.88791,0 5.31983,-1.09437 6.74858,-2.97911 1.12476,-1.51995 1.55035,-3.28309 1.55035,-6.53578 z m -8.63332,1.67194 c 3.58708,0 6.38379,2.82711 6.38379,6.44459 0,3.89107 -2.73591,6.83978 -6.35339,6.83978 -3.64788,0 -6.38379,-2.88791 -6.38379,-6.74858 0,-3.79988 2.67511,-6.53579 6.35339,-6.53579 z"
         style="font-family:'URW Gothic';-inkscape-font-specification:'URW Gothic'"
         id="path1801" /><path
         d="m 210.32577,118.53357 c 0,-2.27993 -0.30399,-3.67828 -1.12477,-5.13743 -1.48955,-2.67511 -4.37745,-4.31666 -7.56935,-4.31666 -4.83344,0 -8.60292,3.79988 -8.60292,8.63332 0,4.92463 3.86068,8.78531 8.78532,8.78531 3.61748,0 6.87017,-2.34073 8.08613,-5.86701 h -2.34072 c -0.94237,2.27993 -3.2831,3.79988 -5.80621,3.79988 -3.43509,0 -6.2926,-2.61432 -6.47499,-5.89741 z m -14.98671,-2.03673 c 0.60798,-3.1919 3.1311,-5.35023 6.29259,-5.35023 3.2223,0 5.65422,2.00634 6.44459,5.35023 z"
         style="font-family:'URW Gothic';-inkscape-font-specification:'URW Gothic'"
         id="path1803" /></g><text
       xml:space="preserve"
       transform="matrix(0.26458333,0,0,0.26458333,-9.0933451,-49.76689)"
       id="text568"
       style="font-style:normal;font-weight:normal;font-size:40px;line-height:1.25;font-family:sans-serif;white-space:pre;shape-inside:url(#rect570);fill:#000000;fill-opacity:1;stroke:none" /></g></svg>
