<?xml version="1.0" encoding="UTF-8" standalone="no"?>
<!-- Created with Inkscape (http://www.inkscape.org/) -->

<svg
   width="312.55441mm"
   height="100.13598mm"
   viewBox="0 0 312.55441 100.13598"
   version="1.1"
   id="svg5"
   xml:space="preserve"
   sodipodi:docname="powered_by_adige.svg"
   inkscape:export-filename="../src/images/powered_by_adige.svg"
   inkscape:export-xdpi="520.50018"
   inkscape:export-ydpi="520.50018"
   xmlns:inkscape="http://www.inkscape.org/namespaces/inkscape"
   xmlns:sodipodi="http://sodipodi.sourceforge.net/DTD/sodipodi-0.dtd"
   xmlns="http://www.w3.org/2000/svg"
   xmlns:svg="http://www.w3.org/2000/svg"><sodipodi:namedview
     id="namedview7"
     pagecolor="#505050"
     bordercolor="#eeeeee"
     borderopacity="1"
     inkscape:showpageshadow="0"
     inkscape:pageopacity="0"
     inkscape:pagecheckerboard="0"
     inkscape:deskcolor="#505050"
     inkscape:document-units="mm"
     showgrid="false" /><defs
     id="defs2"><rect
       x="1343.2242"
       y="833.39349"
       width="1464.8419"
       height="521.52441"
       id="rect570" /><rect
       x="40.625"
       y="403.90625"
       width="155.29601"
       height="24.582211"
       id="rect7904" /><rect
       x="192.33304"
       y="854.89209"
       width="266.57925"
       height="76.367531"
       id="rect8593" /></defs><g
     id="layer1-7"
     transform="translate(6.5391034,-46.850619)"><text
       xml:space="preserve"
       style="font-size:10.5833px;line-height:1.25;font-family:'Yu Gothic';-inkscape-font-specification:'Yu Gothic';stroke-width:0.264583"
       x="-0.37417734"
       y="83.441544"
       id="text24418"><tspan
         id="tspan24416"
         style="stroke-width:0.264583" /></text><path
       id="rect31"
       clip-path="none"
       style="fill:none;stroke:#000000;stroke-width:1.61044;stroke-miterlimit:4;stroke-dasharray:none;stroke-opacity:1"
       d="m 249.01324,101.45328 h -21.52819 c -1.99381,0 -3.59896,1.58909 -3.59896,3.56296 v 20.39531 a 33.55584,32.499688 0 0 1 0.33754,-1.26828 33.55584,32.499688 0 0 1 0.57177,-1.73666 33.55584,32.499688 0 0 1 0.67104,-1.70332 33.55584,32.499688 0 0 1 0.76885,-1.66396 33.55584,32.499688 0 0 1 0.86404,-1.6197 33.55584,32.499688 0 0 1 0.95634,-1.57001 33.55584,32.499688 0 0 1 1.04573,-1.51569 33.55584,32.499688 0 0 1 1.13164,-1.45679 33.55584,32.499688 0 0 1 1.21435,-1.39271 33.55584,32.499688 0 0 1 1.29331,-1.3246 33.55584,32.499688 0 0 1 1.36761,-1.2525 33.55584,32.499688 0 0 1 1.43814,-1.17607 33.55584,32.499688 0 0 1 1.50402,-1.09618 33.55584,32.499688 0 0 1 1.56497,-1.01285 33.55584,32.499688 0 0 1 1.62098,-0.92637 33.55584,32.499688 0 0 1 1.67236,-0.83672 33.55584,32.499688 0 0 1 1.71821,-0.74449 33.55584,32.499688 0 0 1 1.75828,-0.65023 33.55584,32.499688 0 0 1 1.79338,-0.55341 33.55584,32.499688 0 0 1 1.82269,-0.45542 33.55584,32.499688 0 0 1 0.0118,-0.002 z"
       inkscape:export-filename="/home/mattia/OneDrive/Documenti/Job/Adige Calculations/Logo/logoPNG_black_withLateralWords.png"
       inkscape:export-xdpi="500"
       inkscape:export-ydpi="500" /><path
       id="path1744"
       clip-path="none"
       style="fill:none;stroke:#000000;stroke-width:1.61044;stroke-miterlimit:4;stroke-dasharray:none;stroke-opacity:1"
       d="m 260.77285,123.96225 a 14.582155,14.680901 0 0 0 -0.92265,0.0347 14.582155,14.680901 0 0 0 -1.08376,0.12296 14.582155,14.680901 0 0 0 -1.07127,0.20403 14.582155,14.680901 0 0 0 -1.05358,0.28416 14.582155,14.680901 0 0 0 -1.02919,0.36263 14.582155,14.680901 0 0 0 -0.99958,0.43904 14.582155,14.680901 0 0 0 -0.96417,0.5129 14.582155,14.680901 0 0 0 -0.92324,0.58415 14.582155,14.680901 0 0 0 -0.8774,0.65197 14.582155,14.680901 0 0 0 -0.8266,0.71604 14.582155,14.680901 0 0 0 -0.77117,0.77637 14.582155,14.680901 0 0 0 -0.71108,0.83211 14.582155,14.680901 0 0 0 -0.64753,0.88327 14.582155,14.680901 0 0 0 -0.58018,0.92981 14.582155,14.680901 0 0 0 -0.50966,0.97062 14.582155,14.680901 0 0 0 -0.43594,1.00625 14.582155,14.680901 0 0 0 -0.36019,1.03614 14.582155,14.680901 0 0 0 -0.2824,1.06054 14.582155,14.680901 0 0 0 -0.20258,1.07866 14.582155,14.680901 0 0 0 -0.12219,1.091 14.582155,14.680901 0 0 0 -0.0407,1.09705 14.582155,14.680901 0 0 0 0.0122,0.32613 h 10.80386 c 1.99382,0 3.59896,-1.58908 3.59896,-3.56296 z"
       inkscape:export-filename="/home/mattia/OneDrive/Documenti/Job/Adige Calculations/Logo/logoPNG_black_withLateralWords.png"
       inkscape:export-xdpi="500"
       inkscape:export-ydpi="500" /><path
       id="path1750"
       clip-path="none"
       style="fill:none;stroke:#000000;stroke-width:1.61044;stroke-miterlimit:4;stroke-dasharray:none;stroke-opacity:1"
       d="m 260.34824,108.00969 a 30.339475,30.048694 0 0 0 -3.39696,0.18907 30.339475,30.048694 0 0 0 -3.354,0.56432 30.339475,30.048694 0 0 0 -3.26955,0.933 30.339475,30.048694 0 0 0 -3.14328,1.28954 30.339475,30.048694 0 0 0 -2.97757,1.62976 30.339475,30.048694 0 0 0 -2.77497,1.95014 30.339475,30.048694 0 0 0 -2.53669,2.24525 30.339475,30.048694 0 0 0 -2.26735,2.51274 30.339475,30.048694 0 0 0 -1.96868,2.74807 30.339475,30.048694 0 0 0 -1.64566,2.94921 30.339475,30.048694 0 0 0 -1.30202,3.11327 30.339475,30.048694 0 0 0 -0.94211,3.23796 30.339475,30.048694 0 0 0 -0.56974,3.32218 30.339475,30.048694 0 0 0 -0.19068,3.3641 30.339475,30.048694 0 0 0 0.0514,0.90455 h 8.18795 a 22.787625,22.864676 0 0 1 -0.0316,-0.52524 22.787625,22.864676 0 0 1 0.16602,-2.75613 22.787625,22.864676 0 0 1 0.49602,-2.71589 22.787625,22.864676 0 0 1 0.81876,-2.63601 22.787625,22.864676 0 0 1 1.12932,-2.51791 22.787625,22.864676 0 0 1 1.42361,-2.36274 22.787625,22.864676 0 0 1 1.69704,-2.17343 22.787625,22.864676 0 0 1 1.94576,-1.95242 22.787625,22.864676 0 0 1 2.16605,-1.70276 22.787625,22.864676 0 0 1 2.355,-1.42833 22.787625,22.864676 0 0 1 2.50941,-1.13326 22.787625,22.864676 0 0 1 2.62725,-0.82149 22.787625,22.864676 0 0 1 2.70647,-0.49765 22.787625,22.864676 0 0 1 2.5155,-0.15258 v -7.56899 a 30.339475,30.048694 0 0 0 -0.42462,-0.008 z"
       inkscape:export-filename="/home/mattia/OneDrive/Documenti/Job/Adige Calculations/Logo/logoPNG_black_withLateralWords.png"
       inkscape:export-xdpi="500"
       inkscape:export-ydpi="500" /><path
       id="path1747"
       clip-path="none"
       style="fill:none;stroke:#000000;stroke-width:1.61044;stroke-miterlimit:4;stroke-dasharray:none;stroke-opacity:1"
       d="m 249.01324,101.45328 a 33.55584,32.499688 0 0 0 -0.0118,0.002 33.55584,32.499688 0 0 0 -1.82271,0.45543 33.55584,32.499688 0 0 0 -1.79338,0.55341 33.55584,32.499688 0 0 0 -1.75827,0.65023 33.55584,32.499688 0 0 0 -1.71822,0.74449 33.55584,32.499688 0 0 0 -1.67235,0.83672 33.55584,32.499688 0 0 0 -1.62099,0.92637 33.55584,32.499688 0 0 0 -1.56497,1.01285 33.55584,32.499688 0 0 0 -1.50402,1.09618 33.55584,32.499688 0 0 0 -1.43813,1.17607 33.55584,32.499688 0 0 0 -1.3676,1.2525 33.55584,32.499688 0 0 0 -1.29331,1.3246 33.55584,32.499688 0 0 0 -1.21437,1.39272 33.55584,32.499688 0 0 0 -1.13162,1.4568 33.55584,32.499688 0 0 0 -1.04575,1.51568 33.55584,32.499688 0 0 0 -0.95633,1.57 33.55584,32.499688 0 0 0 -0.86404,1.61971 33.55584,32.499688 0 0 0 -0.76885,1.66396 33.55584,32.499688 0 0 0 -0.67103,1.70332 33.55584,32.499688 0 0 0 -0.57178,1.73665 33.55584,32.499688 0 0 0 -0.33754,1.2683 v 9.98832 c 0,1.97388 1.60514,3.56296 3.59897,3.56296 h 2.57528 a 30.339475,30.048694 0 0 1 -0.0513,-0.90453 30.339475,30.048694 0 0 1 0.19069,-3.36412 30.339475,30.048694 0 0 1 0.56973,-3.32216 30.339475,30.048694 0 0 1 0.94212,-3.23798 30.339475,30.048694 0 0 1 1.302,-3.11326 30.339475,30.048694 0 0 1 1.64568,-2.94922 30.339475,30.048694 0 0 1 1.96868,-2.74806 30.339475,30.048694 0 0 1 2.26735,-2.51275 30.339475,30.048694 0 0 1 2.53669,-2.24525 30.339475,30.048694 0 0 1 2.77498,-1.95014 30.339475,30.048694 0 0 1 2.97755,-1.62974 30.339475,30.048694 0 0 1 3.14329,-1.28958 30.339475,30.048694 0 0 1 3.26955,-0.93297 30.339475,30.048694 0 0 1 3.354,-0.56433 30.339475,30.048694 0 0 1 3.39697,-0.18906 30.339475,30.048694 0 0 1 0.42461,0.008 v -3.0018 c 0,-1.97388 -1.60515,-3.56296 -3.59895,-3.56296 z"
       inkscape:export-filename="/home/mattia/OneDrive/Documenti/Job/Adige Calculations/Logo/logoPNG_black_withLateralWords.png"
       inkscape:export-xdpi="500"
       inkscape:export-ydpi="500" /><text
       xml:space="preserve"
       transform="matrix(0.62750251,0,0,0.66588016,-103.33738,-506.56426)"
       id="text8591"
       style="font-style:normal;font-weight:normal;font-size:64px;line-height:1.25;font-family:sans-serif;letter-spacing:-0.196471px;word-spacing:0px;white-space:pre;shape-inside:url(#rect8593);fill:#000000;fill-opacity:1;stroke:none" /><text
       xml:space="preserve"
       style="font-style:normal;font-weight:normal;font-size:10.5833px;line-height:1.25;font-family:sans-serif;fill:#000000;fill-opacity:1;stroke:none;stroke-width:0.264583"
       x="123.42812"
       y="118.00417"
       id="text17302"><tspan
         id="tspan17300"
         style="stroke-width:0.264583" /></text><text
       xml:space="preserve"
       style="font-style:normal;font-weight:normal;font-size:20.6776px;line-height:0;font-family:sans-serif;white-space:pre;inline-size:132.872;fill:#000000;fill-opacity:1;stroke:#ffffff;stroke-width:0.373617"
       x="95.754318"
       y="144.93924"
       id="text28274"
       transform="matrix(0.89831852,0,0,0.98899133,-56.197874,-31.3943)"
       inkscape:export-filename="/home/mattia/OneDrive/Documenti/Job/Adige Calculations/Logo/logoPNG_black_withLateralWords.png"
       inkscape:export-xdpi="500"
       inkscape:export-ydpi="500"><tspan
         x="95.754318"
         y="144.93924"
         id="tspan1271"><tspan
           style="font-family:'URW Gothic';-inkscape-font-specification:'URW Gothic'"
           id="tspan1269">Powered
</tspan></tspan><tspan
         x="95.754318"
         y="145.36863"
         id="tspan1275"><tspan
           style="font-family:'URW Gothic';-inkscape-font-specification:'URW Gothic'"
           id="tspan1273">
</tspan></tspan><tspan
         x="95.754318"
         y="145.79801"
         id="tspan1279"><tspan
           style="font-family:'URW Gothic';-inkscape-font-specification:'URW Gothic'"
           id="tspan1277">
</tspan></tspan><tspan
         x="95.754318"
         y="146.22739"
         id="tspan1283"><tspan
           style="font-family:'URW Gothic';-inkscape-font-specification:'URW Gothic'"
           id="tspan1281">
</tspan></tspan><tspan
         x="95.754318"
         y="146.65678"
         id="tspan1287"><tspan
           style="font-family:'URW Gothic';-inkscape-font-specification:'URW Gothic'"
           id="tspan1285">
</tspan></tspan><tspan
         x="95.754318"
         y="147.08616"
         id="tspan1291"><tspan
           style="font-family:'URW Gothic';-inkscape-font-specification:'URW Gothic'"
           id="tspan1289">
</tspan></tspan><tspan
         x="95.754318"
         y="147.51554"
         id="tspan1295"><tspan
           style="font-family:'URW Gothic';-inkscape-font-specification:'URW Gothic'"
           id="tspan1293">
</tspan></tspan><tspan
         x="95.754318"
         y="147.94492"
         id="tspan1299"><tspan
           style="font-family:'URW Gothic';-inkscape-font-specification:'URW Gothic'"
           id="tspan1297">
</tspan></tspan><tspan
         x="95.754318"
         y="148.37431"
         id="tspan1303"><tspan
           style="font-family:'URW Gothic';-inkscape-font-specification:'URW Gothic'"
           id="tspan1301">
</tspan></tspan><tspan
         x="95.754318"
         y="148.80369"
         id="tspan1307"><tspan
           style="font-family:'URW Gothic';-inkscape-font-specification:'URW Gothic'"
           id="tspan1305">
</tspan></tspan><tspan
         x="95.754318"
         y="149.23307"
         id="tspan1311"><tspan
           style="font-family:'URW Gothic';-inkscape-font-specification:'URW Gothic'"
           id="tspan1309">
</tspan></tspan><tspan
         x="95.754318"
         y="149.66245"
         id="tspan1315"><tspan
           style="font-family:'URW Gothic';-inkscape-font-specification:'URW Gothic'"
           id="tspan1313">
</tspan></tspan><tspan
         x="95.754318"
         y="150.09183"
         id="tspan1319"><tspan
           style="font-family:'URW Gothic';-inkscape-font-specification:'URW Gothic'"
           id="tspan1317">
</tspan></tspan><tspan
         x="95.754318"
         y="150.52122"
         id="tspan1323"><tspan
           style="font-family:'URW Gothic';-inkscape-font-specification:'URW Gothic'"
           id="tspan1321">
</tspan></tspan><tspan
         x="95.754318"
         y="150.9506"
         id="tspan1327"><tspan
           style="font-family:'URW Gothic';-inkscape-font-specification:'URW Gothic'"
           id="tspan1325">
</tspan></tspan><tspan
         x="95.754318"
         y="151.37998"
         id="tspan1331"><tspan
           style="font-family:'URW Gothic';-inkscape-font-specification:'URW Gothic'"
           id="tspan1329">
</tspan></tspan><tspan
         x="95.754318"
         y="151.80936"
         id="tspan1335"><tspan
           style="font-family:'URW Gothic';-inkscape-font-specification:'URW Gothic'"
           id="tspan1333">
</tspan></tspan><tspan
         x="95.754318"
         y="152.23875"
         id="tspan1339"><tspan
           style="font-family:'URW Gothic';-inkscape-font-specification:'URW Gothic'"
           id="tspan1337">
</tspan></tspan><tspan
         x="95.754318"
         y="152.66813"
         id="tspan1343"><tspan
           style="font-family:'URW Gothic';-inkscape-font-specification:'URW Gothic'"
           id="tspan1341">
</tspan></tspan><tspan
         x="95.754318"
         y="153.09751"
         id="tspan1347"><tspan
           style="font-family:'URW Gothic';-inkscape-font-specification:'URW Gothic'"
           id="tspan1345">     
</tspan></tspan><tspan
         x="95.754318"
         y="166.45039"
         id="tspan1353"><tspan
           style="font-family:'URW Gothic';-inkscape-font-specification:'URW Gothic'"
           id="tspan1349">           by</tspan><tspan
           style="line-height:1.25"
           id="tspan1351">
</tspan></tspan><tspan
         x="95.754318"
         y="192.29739"
         id="tspan1359"><tspan
           style="line-height:1.25"
           id="tspan1355">        </tspan><tspan
           style="font-family:'URW Gothic';-inkscape-font-specification:'URW Gothic'"
           id="tspan1357"> </tspan></tspan></text><text
       xml:space="preserve"
       style="font-style:normal;font-weight:normal;font-size:26.6013px;line-height:0;font-family:sans-serif;fill:#000000;fill-opacity:1;stroke:#ffffff;stroke-width:0.480651"
       x="-1.8896313"
       y="83.485138"
       id="text28274-5"
       transform="scale(0.97913983,1.0213046)"
       inkscape:export-filename="/home/mattia/OneDrive/Documenti/Job/Adige Calculations/Logo/logoPNG_black_withLateralWords.png"
       inkscape:export-xdpi="500"
       inkscape:export-ydpi="500"><tspan
         id="tspan28272-3"
         style="font-style:normal;font-variant:normal;font-weight:normal;font-stretch:normal;font-size:26.6013px;line-height:1.25;font-family:'URW Gothic';-inkscape-font-specification:'URW Gothic';fill:#000000;stroke:#ffffff;stroke-width:0.480651"
         x="-1.8896313"
         y="83.485138">OpenFoam<tspan
   style="font-size:11.9706px;line-height:1.25;baseline-shift:super;stroke-width:0.480651"
   id="tspan556">®</tspan> Handbook</tspan></text><text
       xml:space="preserve"
       transform="matrix(0.2976718,0,0,0.299739,113.81564,7.9649807)"
       id="text7902"
       style="font-style:normal;font-weight:normal;font-size:18.9244px;line-height:1.25;font-family:sans-serif;white-space:pre;shape-inside:url(#rect7904);fill:#000000;fill-opacity:1;stroke:#000000"
       inkscape:export-filename="/home/mattia/OneDrive/Documenti/Job/Adige Calculations/Logo/logoPNG_black_withLateralWords.png"
       inkscape:export-xdpi="500"
       inkscape:export-ydpi="500"><tspan
         x="40.625"
         y="420.64991"
         id="tspan1363"><tspan
           style="font-family:Consolas;-inkscape-font-specification:Consolas"
           id="tspan1361">calculations</tspan></tspan></text><text
       xml:space="preserve"
       style="font-style:normal;font-weight:normal;font-size:30.399px;line-height:2.15;font-family:sans-serif;fill:#000000;fill-opacity:1;stroke:none;stroke-width:0.227991"
       x="124.4701"
       y="126.10292"
       id="text546"
       transform="scale(0.99207837,1.0079849)"><tspan
         sodipodi:role="line"
         id="tspan544"
         x="124.4701"
         y="126.10292"
         style="font-style:normal;font-variant:normal;font-weight:normal;font-stretch:normal;font-size:30.399px;font-family:'URW Gothic';-inkscape-font-specification:'URW Gothic';fill:#000000;stroke-width:0.227991">A<tspan
   style="font-style:normal;font-variant:normal;font-weight:normal;font-stretch:normal;font-size:33.4387px;font-family:'URW Gothic';-inkscape-font-specification:'URW Gothic';fill:#000000;stroke-width:0.227991"
   id="tspan548">δ</tspan>ige </tspan></text><text
       xml:space="preserve"
       transform="matrix(0.26458333,0,0,0.26458333,-9.0933451,-49.76689)"
       id="text568"
       style="font-style:normal;font-weight:normal;font-size:40px;line-height:1.25;font-family:sans-serif;white-space:pre;shape-inside:url(#rect570);fill:#000000;fill-opacity:1;stroke:none" /></g></svg>
