<?xml version="1.0" encoding="UTF-8" standalone="no"?>
<!-- Created with Inkscape (http://www.inkscape.org/) -->

<svg
   width="312.55441mm"
   height="100.13599mm"
   viewBox="0 0 312.55441 100.13599"
   version="1.1"
   id="svg5"
   xml:space="preserve"
   xmlns:inkscape="http://www.inkscape.org/namespaces/inkscape"
   xmlns:sodipodi="http://sodipodi.sourceforge.net/DTD/sodipodi-0.dtd"
   xmlns="http://www.w3.org/2000/svg"
   xmlns:svg="http://www.w3.org/2000/svg"><sodipodi:namedview
     id="namedview7"
     pagecolor="#505050"
     bordercolor="#eeeeee"
     borderopacity="1"
     inkscape:showpageshadow="0"
     inkscape:pageopacity="0"
     inkscape:pagecheckerboard="0"
     inkscape:deskcolor="#505050"
     inkscape:document-units="mm"
     showgrid="false" /><defs
     id="defs2"><rect
       x="1343.2242"
       y="833.39349"
       width="1464.8419"
       height="521.52441"
       id="rect570" /><rect
       x="40.625"
       y="403.90625"
       width="155.29601"
       height="24.582211"
       id="rect7904" /><rect
       x="192.33304"
       y="854.89209"
       width="266.57925"
       height="76.367531"
       id="rect8593" /></defs><g
     id="layer1-7"
     transform="translate(6.5391034,-59.550627)"><text
       xml:space="preserve"
       style="font-size:10.5833px;line-height:1.25;font-family:'Yu Gothic';-inkscape-font-specification:'Yu Gothic';stroke-width:0.264583"
       x="-0.37417734"
       y="83.441544"
       id="text24418"><tspan
         id="tspan24416"
         style="stroke-width:0.264583" /></text><path
       id="rect31"
       clip-path="none"
       style="fill:none;stroke:#000000;stroke-width:1.70857;stroke-miterlimit:4;stroke-dasharray:none;stroke-opacity:1"
       d="m 258.60583,98.663313 h -22.83622 c -2.11495,0 -3.81763,1.686197 -3.81763,3.780687 v 21.64168 a 35.594655,34.485751 0 0 1 0.35805,-1.34578 35.594655,34.485751 0 0 1 0.60651,-1.84279 35.594655,34.485751 0 0 1 0.71181,-1.80741 35.594655,34.485751 0 0 1 0.81557,-1.76565 35.594655,34.485751 0 0 1 0.91653,-1.71868 35.594655,34.485751 0 0 1 1.01445,-1.66595 35.594655,34.485751 0 0 1 1.10927,-1.60832 35.594655,34.485751 0 0 1 1.2004,-1.54581 35.594655,34.485751 0 0 1 1.28813,-1.47782 35.594655,34.485751 0 0 1 1.37189,-1.40555 35.594655,34.485751 0 0 1 1.4507,-1.32904 35.594655,34.485751 0 0 1 1.52552,-1.24794 35.594655,34.485751 0 0 1 1.5954,-1.16316 35.594655,34.485751 0 0 1 1.66006,-1.07475 35.594655,34.485751 0 0 1 1.71947,-0.98298 35.594655,34.485751 0 0 1 1.77397,-0.88786 35.594655,34.485751 0 0 1 1.82261,-0.78998 35.594655,34.485751 0 0 1 1.86511,-0.689965 35.594655,34.485751 0 0 1 1.90234,-0.587229 35.594655,34.485751 0 0 1 1.93344,-0.483255 35.594655,34.485751 0 0 1 0.0125,-0.0022 z"
       inkscape:export-filename="/home/mattia/OneDrive/Documenti/Job/Adige Calculations/Logo/logoPNG_black_withLateralWords.png"
       inkscape:export-xdpi="500"
       inkscape:export-ydpi="500" /><path
       id="path1744"
       clip-path="none"
       style="fill:none;stroke:#000000;stroke-width:1.70857;stroke-miterlimit:4;stroke-dasharray:none;stroke-opacity:1"
       d="m 271.07994,122.54781 a 15.46815,15.578054 0 0 0 -0.97871,0.0368 15.46815,15.578054 0 0 0 -1.14961,0.13048 15.46815,15.578054 0 0 0 -1.13636,0.21649 15.46815,15.578054 0 0 0 -1.11759,0.30153 15.46815,15.578054 0 0 0 -1.09172,0.38479 15.46815,15.578054 0 0 0 -1.06032,0.46587 15.46815,15.578054 0 0 0 -1.02275,0.54424 15.46815,15.578054 0 0 0 -0.97933,0.61985 15.46815,15.578054 0 0 0 -0.93071,0.69181 15.46815,15.578054 0 0 0 -0.87683,0.7598 15.46815,15.578054 0 0 0 -0.81802,0.82381 15.46815,15.578054 0 0 0 -0.75429,0.88296 15.46815,15.578054 0 0 0 -0.68687,0.93725 15.46815,15.578054 0 0 0 -0.61543,0.98663 15.46815,15.578054 0 0 0 -0.54063,1.02994 15.46815,15.578054 0 0 0 -0.46242,1.06774 15.46815,15.578054 0 0 0 -0.38208,1.09946 15.46815,15.578054 0 0 0 -0.29956,1.12535 15.46815,15.578054 0 0 0 -0.21489,1.14458 15.46815,15.578054 0 0 0 -0.12961,1.15767 15.46815,15.578054 0 0 0 -0.0432,1.16409 15.46815,15.578054 0 0 0 0.0129,0.34606 h 11.46029 c 2.11497,0 3.81763,-1.68619 3.81763,-3.7807 z"
       inkscape:export-filename="/home/mattia/OneDrive/Documenti/Job/Adige Calculations/Logo/logoPNG_black_withLateralWords.png"
       inkscape:export-xdpi="500"
       inkscape:export-ydpi="500" /><path
       id="path1750"
       clip-path="none"
       style="fill:none;stroke:#000000;stroke-width:1.70857;stroke-miterlimit:4;stroke-dasharray:none;stroke-opacity:1"
       d="m 270.62953,105.62039 a 32.182867,31.884976 0 0 0 -3.60335,0.20062 32.182867,31.884976 0 0 0 -3.55779,0.59881 32.182867,31.884976 0 0 0 -3.4682,0.99001 32.182867,31.884976 0 0 0 -3.33427,1.36835 32.182867,31.884976 0 0 0 -3.15848,1.72935 32.182867,31.884976 0 0 0 -2.94357,2.06932 32.182867,31.884976 0 0 0 -2.69082,2.38245 32.182867,31.884976 0 0 0 -2.40511,2.6663 32.182867,31.884976 0 0 0 -2.0883,2.916 32.182867,31.884976 0 0 0 -1.74565,3.12944 32.182867,31.884976 0 0 0 -1.38112,3.30352 32.182867,31.884976 0 0 0 -0.99936,3.43584 32.182867,31.884976 0 0 0 -0.60435,3.52519 32.182867,31.884976 0 0 0 -0.20227,3.56969 32.182867,31.884976 0 0 0 0.0545,0.95982 h 8.68544 a 24.172175,24.261941 0 0 1 -0.0335,-0.55734 24.172175,24.261941 0 0 1 0.17611,-2.92455 24.172175,24.261941 0 0 1 0.52616,-2.88186 24.172175,24.261941 0 0 1 0.86851,-2.7971 24.172175,24.261941 0 0 1 1.19793,-2.67178 24.172175,24.261941 0 0 1 1.51011,-2.50713 24.172175,24.261941 0 0 1 1.80015,-2.30624 24.172175,24.261941 0 0 1 2.06398,-2.07174 24.172175,24.261941 0 0 1 2.29766,-1.80681 24.172175,24.261941 0 0 1 2.49809,-1.51562 24.172175,24.261941 0 0 1 2.66187,-1.20251 24.172175,24.261941 0 0 1 2.78688,-0.87169 24.172175,24.261941 0 0 1 2.87092,-0.52807 24.172175,24.261941 0 0 1 2.66833,-0.1619 v -8.03153 a 32.182867,31.884976 0 0 0 -0.45041,-0.009 z"
       inkscape:export-filename="/home/mattia/OneDrive/Documenti/Job/Adige Calculations/Logo/logoPNG_black_withLateralWords.png"
       inkscape:export-xdpi="500"
       inkscape:export-ydpi="500" /><path
       id="path1747"
       clip-path="none"
       style="fill:none;stroke:#000000;stroke-width:1.70857;stroke-miterlimit:4;stroke-dasharray:none;stroke-opacity:1"
       d="m 258.60583,98.663313 a 35.594655,34.485751 0 0 0 -0.0125,0.0022 35.594655,34.485751 0 0 0 -1.93345,0.483255 35.594655,34.485751 0 0 0 -1.90235,0.587228 35.594655,34.485751 0 0 0 -1.8651,0.689974 35.594655,34.485751 0 0 0 -1.82261,0.78998 35.594655,34.485751 0 0 0 -1.77396,0.88785 35.594655,34.485751 0 0 0 -1.71948,0.98299 35.594655,34.485751 0 0 0 -1.66006,1.07474 35.594655,34.485751 0 0 0 -1.5954,1.16317 35.594655,34.485751 0 0 0 -1.52551,1.24794 35.594655,34.485751 0 0 0 -1.4507,1.32904 35.594655,34.485751 0 0 0 -1.37188,1.40555 35.594655,34.485751 0 0 0 -1.28816,1.47783 35.594655,34.485751 0 0 0 -1.20038,1.54582 35.594655,34.485751 0 0 0 -1.10928,1.60831 35.594655,34.485751 0 0 0 -1.01444,1.66594 35.594655,34.485751 0 0 0 -0.91654,1.71869 35.594655,34.485751 0 0 0 -0.81556,1.76564 35.594655,34.485751 0 0 0 -0.7118,1.80741 35.594655,34.485751 0 0 0 -0.60652,1.84278 35.594655,34.485751 0 0 0 -0.35805,1.34581 v 10.59871 c 0,2.0945 1.70267,3.78069 3.81764,3.78069 h 2.73175 a 32.182867,31.884976 0 0 1 -0.0544,-0.95981 32.182867,31.884976 0 0 1 0.20228,-3.5697 32.182867,31.884976 0 0 1 0.60435,-3.52518 32.182867,31.884976 0 0 1 0.99936,-3.43585 32.182867,31.884976 0 0 1 1.38111,-3.30351 32.182867,31.884976 0 0 1 1.74566,-3.12945 32.182867,31.884976 0 0 1 2.0883,-2.916 32.182867,31.884976 0 0 1 2.40511,-2.6663 32.182867,31.884976 0 0 1 2.69082,-2.38246 32.182867,31.884976 0 0 1 2.94358,-2.06931 32.182867,31.884976 0 0 1 3.15846,-1.72934 32.182867,31.884976 0 0 1 3.33428,-1.36838 32.182867,31.884976 0 0 1 3.4682,-0.98999 32.182867,31.884976 0 0 1 3.55779,-0.59881 32.182867,31.884976 0 0 1 3.60336,-0.20062 32.182867,31.884976 0 0 1 0.45041,0.009 v -3.18524 c 0,-2.0945 -1.70267,-3.780688 -3.81762,-3.780688 z"
       inkscape:export-filename="/home/mattia/OneDrive/Documenti/Job/Adige Calculations/Logo/logoPNG_black_withLateralWords.png"
       inkscape:export-xdpi="500"
       inkscape:export-ydpi="500" /><text
       xml:space="preserve"
       transform="matrix(0.62750251,0,0,0.66588016,-103.33738,-506.56426)"
       id="text8591"
       style="font-style:normal;font-weight:normal;font-size:64px;line-height:1.25;font-family:sans-serif;letter-spacing:-0.196471px;word-spacing:0px;white-space:pre;shape-inside:url(#rect8593);fill:#000000;fill-opacity:1;stroke:none" /><text
       xml:space="preserve"
       style="font-style:normal;font-weight:normal;font-size:10.5833px;line-height:1.25;font-family:sans-serif;fill:#000000;fill-opacity:1;stroke:none;stroke-width:0.264583"
       x="123.42812"
       y="118.00417"
       id="text17302"><tspan
         id="tspan17300"
         style="stroke-width:0.264583" /></text><text
       xml:space="preserve"
       style="font-style:normal;font-weight:normal;font-size:20.6776px;line-height:0;font-family:sans-serif;white-space:pre;inline-size:132.872;fill:#000000;fill-opacity:1;stroke:#ffffff;stroke-width:0.373617"
       x="95.754318"
       y="144.93924"
       id="text28274"
       transform="matrix(0.95289933,0,0,1.0494288,-65.149569,-42.302614)"
       inkscape:export-filename="/home/mattia/OneDrive/Documenti/Job/Adige Calculations/Logo/logoPNG_black_withLateralWords.png"
       inkscape:export-xdpi="500"
       inkscape:export-ydpi="500"><tspan
         x="95.754318"
         y="144.93924"
         id="tspan910"><tspan
           style="font-family:'URW Gothic';-inkscape-font-specification:'URW Gothic'"
           id="tspan908">Powered
</tspan></tspan><tspan
         x="95.754318"
         y="145.36863"
         id="tspan914"><tspan
           style="font-family:'URW Gothic';-inkscape-font-specification:'URW Gothic'"
           id="tspan912">
</tspan></tspan><tspan
         x="95.754318"
         y="145.79801"
         id="tspan918"><tspan
           style="font-family:'URW Gothic';-inkscape-font-specification:'URW Gothic'"
           id="tspan916">
</tspan></tspan><tspan
         x="95.754318"
         y="146.22739"
         id="tspan922"><tspan
           style="font-family:'URW Gothic';-inkscape-font-specification:'URW Gothic'"
           id="tspan920">
</tspan></tspan><tspan
         x="95.754318"
         y="146.65678"
         id="tspan926"><tspan
           style="font-family:'URW Gothic';-inkscape-font-specification:'URW Gothic'"
           id="tspan924">
</tspan></tspan><tspan
         x="95.754318"
         y="147.08616"
         id="tspan930"><tspan
           style="font-family:'URW Gothic';-inkscape-font-specification:'URW Gothic'"
           id="tspan928">
</tspan></tspan><tspan
         x="95.754318"
         y="147.51554"
         id="tspan934"><tspan
           style="font-family:'URW Gothic';-inkscape-font-specification:'URW Gothic'"
           id="tspan932">
</tspan></tspan><tspan
         x="95.754318"
         y="147.94492"
         id="tspan938"><tspan
           style="font-family:'URW Gothic';-inkscape-font-specification:'URW Gothic'"
           id="tspan936">
</tspan></tspan><tspan
         x="95.754318"
         y="148.37431"
         id="tspan942"><tspan
           style="font-family:'URW Gothic';-inkscape-font-specification:'URW Gothic'"
           id="tspan940">
</tspan></tspan><tspan
         x="95.754318"
         y="148.80369"
         id="tspan946"><tspan
           style="font-family:'URW Gothic';-inkscape-font-specification:'URW Gothic'"
           id="tspan944">
</tspan></tspan><tspan
         x="95.754318"
         y="149.23307"
         id="tspan950"><tspan
           style="font-family:'URW Gothic';-inkscape-font-specification:'URW Gothic'"
           id="tspan948">
</tspan></tspan><tspan
         x="95.754318"
         y="149.66245"
         id="tspan954"><tspan
           style="font-family:'URW Gothic';-inkscape-font-specification:'URW Gothic'"
           id="tspan952">
</tspan></tspan><tspan
         x="95.754318"
         y="150.09183"
         id="tspan958"><tspan
           style="font-family:'URW Gothic';-inkscape-font-specification:'URW Gothic'"
           id="tspan956">
</tspan></tspan><tspan
         x="95.754318"
         y="150.52122"
         id="tspan962"><tspan
           style="font-family:'URW Gothic';-inkscape-font-specification:'URW Gothic'"
           id="tspan960">
</tspan></tspan><tspan
         x="95.754318"
         y="150.9506"
         id="tspan966"><tspan
           style="font-family:'URW Gothic';-inkscape-font-specification:'URW Gothic'"
           id="tspan964">
</tspan></tspan><tspan
         x="95.754318"
         y="151.37998"
         id="tspan970"><tspan
           style="font-family:'URW Gothic';-inkscape-font-specification:'URW Gothic'"
           id="tspan968">
</tspan></tspan><tspan
         x="95.754318"
         y="151.80936"
         id="tspan974"><tspan
           style="font-family:'URW Gothic';-inkscape-font-specification:'URW Gothic'"
           id="tspan972">
</tspan></tspan><tspan
         x="95.754318"
         y="152.23875"
         id="tspan978"><tspan
           style="font-family:'URW Gothic';-inkscape-font-specification:'URW Gothic'"
           id="tspan976">
</tspan></tspan><tspan
         x="95.754318"
         y="152.66813"
         id="tspan982"><tspan
           style="font-family:'URW Gothic';-inkscape-font-specification:'URW Gothic'"
           id="tspan980">
</tspan></tspan><tspan
         x="95.754318"
         y="153.09751"
         id="tspan986"><tspan
           style="font-family:'URW Gothic';-inkscape-font-specification:'URW Gothic'"
           id="tspan984">     
</tspan></tspan><tspan
         x="95.754318"
         y="166.45039"
         id="tspan992"><tspan
           style="font-family:'URW Gothic';-inkscape-font-specification:'URW Gothic'"
           id="tspan988">           by</tspan><tspan
           style="line-height:1.25"
           id="tspan990">
</tspan></tspan><tspan
         x="95.754318"
         y="192.29739"
         id="tspan998"><tspan
           style="line-height:1.25"
           id="tspan994">        </tspan><tspan
           style="font-family:'URW Gothic';-inkscape-font-specification:'URW Gothic'"
           id="tspan996"> </tspan></tspan></text><text
       xml:space="preserve"
       style="font-style:normal;font-weight:normal;font-size:28.2222px;line-height:0;font-family:sans-serif;fill:#000000;fill-opacity:1;stroke:#ffffff;stroke-width:0.509939"
       x="-7.6608543"
       y="79.771446"
       id="text28274-5"
       transform="scale(0.97897772,1.0214737)"
       inkscape:export-filename="/home/mattia/OneDrive/Documenti/Job/Adige Calculations/Logo/logoPNG_black_withLateralWords.png"
       inkscape:export-xdpi="500"
       inkscape:export-ydpi="500"><tspan
         id="tspan28272-3"
         style="font-style:normal;font-variant:normal;font-weight:normal;font-stretch:normal;font-size:28.2222px;line-height:1.25;font-family:'URW Gothic';-inkscape-font-specification:'URW Gothic';fill:#000000;stroke:#ffffff;stroke-width:0.509939"
         x="-7.6608543"
         y="79.771446">OpenFoam<tspan
   style="font-size:12.7px;line-height:1.25;baseline-shift:super"
   id="tspan556">®</tspan> Handbook</tspan></text><text
       xml:space="preserve"
       transform="matrix(0.315758,0,0,0.31805611,114.13544,-1.5964124)"
       id="text7902"
       style="font-style:normal;font-weight:normal;font-size:20px;line-height:1.25;font-family:sans-serif;white-space:pre;shape-inside:url(#rect7904);fill:#000000;fill-opacity:1;stroke:#000000"
       inkscape:export-filename="/home/mattia/OneDrive/Documenti/Job/Adige Calculations/Logo/logoPNG_black_withLateralWords.png"
       inkscape:export-xdpi="500"
       inkscape:export-ydpi="500"><tspan
         x="40.625"
         y="421.60156"
         id="tspan1002"><tspan
           style="font-family:Consolas;-inkscape-font-specification:Consolas"
           id="tspan1000">calculations</tspan></tspan></text><text
       xml:space="preserve"
       style="font-style:normal;font-weight:normal;font-size:32.2513px;line-height:1.65;font-family:sans-serif;fill:#000000;fill-opacity:1;stroke:none;stroke-width:0.241884"
       x="126.47231"
       y="124.86983"
       id="text546"
       transform="scale(0.99191413,1.0081518)"><tspan
         sodipodi:role="line"
         id="tspan544"
         x="126.47231"
         y="124.86983"
         style="font-style:normal;font-variant:normal;font-weight:normal;font-stretch:normal;font-size:32.2513px;font-family:'URW Gothic';-inkscape-font-specification:'URW Gothic';fill:#000000;stroke-width:0.241884">A<tspan
   style="font-size:35.4763px;fill:#000000;stroke-width:0.241884"
   id="tspan548">δ</tspan>ige </tspan></text><text
       xml:space="preserve"
       transform="matrix(0.26458333,0,0,0.26458333,-9.0933451,-49.76689)"
       id="text568"
       style="font-style:normal;font-weight:normal;font-size:40px;line-height:1.25;font-family:sans-serif;white-space:pre;shape-inside:url(#rect570);fill:#000000;fill-opacity:1;stroke:none" /></g></svg>
