<?xml version="1.0" encoding="UTF-8" standalone="no"?>
<!-- Created with Inkscape (http://www.inkscape.org/) -->

<svg
   width="68.557884mm"
   height="70.341751mm"
   viewBox="0 0 68.557884 70.341751"
   version="1.1"
   id="svg5"
   sodipodi:docname="logoFinal1.svg"
   inkscape:version="1.1.2 (0a00cf5339, 2022-02-04)"
   xmlns:inkscape="http://www.inkscape.org/namespaces/inkscape"
   xmlns:sodipodi="http://sodipodi.sourceforge.net/DTD/sodipodi-0.dtd"
   xmlns="http://www.w3.org/2000/svg"
   xmlns:svg="http://www.w3.org/2000/svg">
  <sodipodi:namedview
     id="namedview23"
     pagecolor="#505050"
     bordercolor="#eeeeee"
     borderopacity="1"
     inkscape:pageshadow="0"
     inkscape:pageopacity="0"
     inkscape:pagecheckerboard="0"
     inkscape:document-units="mm"
     showgrid="false"
     inkscape:zoom="2.4516099"
     inkscape:cx="260.70913"
     inkscape:cy="141.45467"
     inkscape:window-width="1920"
     inkscape:window-height="1005"
     inkscape:window-x="0"
     inkscape:window-y="0"
     inkscape:window-maximized="1"
     inkscape:current-layer="layer1"
     inkscape:showpageshadow="0"
     inkscape:deskcolor="#d1d1d1" />
  <defs
     id="defs2">
    <rect
       x="40.625"
       y="403.90625"
       width="155.29601"
       height="24.582211"
       id="rect7904" />
    <rect
       x="192.33304"
       y="854.89209"
       width="266.57925"
       height="76.367531"
       id="rect8593" />
  </defs>
  <g
     id="layer1"
     transform="translate(-10.316011,-8.9894772)">
    <text
       xml:space="preserve"
       style="font-size:10.5833px;line-height:1.25;font-family:'Yu Gothic';-inkscape-font-specification:'Yu Gothic';stroke-width:0.264583"
       x="-0.37417734"
       y="83.441544"
       id="text24418"><tspan
         id="tspan24416"
         style="stroke-width:0.264583" /></text>
    <path
       id="rect31"
       clip-path="none"
       style="fill:none;stroke:#000000;stroke-width:10.8918;stroke-miterlimit:4;stroke-dasharray:none;stroke-opacity:1"
       d="M 213.52539,39.421875 H 68.654297 c -13.417187,0 -24.21875,10.801563 -24.21875,24.21875 V 202.27539 a 225.80957,220.91273 0 0 1 2.271484,-8.62109 225.80957,220.91273 0 0 1 3.847657,-11.80469 225.80957,220.91273 0 0 1 4.515624,-11.57813 225.80957,220.91273 0 0 1 5.173829,-11.31054 225.80957,220.91273 0 0 1 5.814453,-11.00977 225.80957,220.91273 0 0 1 6.435547,-10.67187 225.80957,220.91273 0 0 1 7.037109,-10.30274 225.80957,220.91273 0 0 1 7.615234,-9.90234 225.80957,220.91273 0 0 1 8.171875,-9.4668 225.80957,220.91273 0 0 1 8.703121,-9.003904 225.80957,220.91273 0 0 1 9.20313,-8.513672 225.80957,220.91273 0 0 1 9.67773,-7.994141 225.80957,220.91273 0 0 1 10.1211,-7.451172 225.80957,220.91273 0 0 1 10.53125,-6.884765 225.80957,220.91273 0 0 1 10.9082,-6.296875 225.80957,220.91273 0 0 1 11.25391,-5.6875 225.80957,220.91273 0 0 1 11.5625,-5.060547 225.80957,220.91273 0 0 1 11.83203,-4.419922 225.80957,220.91273 0 0 1 12.06836,-3.761719 225.80957,220.91273 0 0 1 12.26562,-3.095703 225.80957,220.91273 0 0 1 0.0801,-0.01563 z"
       transform="scale(0.26458333)"
       inkscape:export-filename="/home/mattia/OneDrive/Documenti/Job/Adige Calculations/Logo/logoPNG_black_withLateralWords.png"
       inkscape:export-xdpi="500"
       inkscape:export-ydpi="500" />
    <path
       id="path1744"
       clip-path="none"
       style="fill:none;stroke:#000000;stroke-width:10.8918;stroke-miterlimit:4;stroke-dasharray:none;stroke-opacity:1"
       d="m 292.66016,192.42383 a 98.128672,99.791659 0 0 0 -6.20899,0.23633 98.128672,99.791659 0 0 0 -7.29297,0.83593 98.128672,99.791659 0 0 0 -7.20898,1.38672 98.128672,99.791659 0 0 0 -7.08984,1.93164 98.128672,99.791659 0 0 0 -6.92579,2.46485 98.128672,99.791659 0 0 0 -6.72656,2.98437 98.128672,99.791659 0 0 0 -6.48828,3.48633 98.128672,99.791659 0 0 0 -6.21289,3.9707 98.128672,99.791659 0 0 0 -5.9043,4.43164 98.128672,99.791659 0 0 0 -5.5625,4.86719 98.128672,99.791659 0 0 0 -5.18945,5.27735 98.128672,99.791659 0 0 0 -4.78516,5.65624 98.128672,99.791659 0 0 0 -4.35742,6.00391 98.128672,99.791659 0 0 0 -3.9043,6.32031 98.128672,99.791659 0 0 0 -3.42968,6.59766 98.128672,99.791659 0 0 0 -2.9336,6.83984 98.128672,99.791659 0 0 0 -2.42383,7.04297 98.128672,99.791659 0 0 0 -1.90039,7.20899 98.128672,99.791659 0 0 0 -1.36328,7.33203 98.128672,99.791659 0 0 0 -0.82226,7.41601 98.128672,99.791659 0 0 0 -0.27344,7.45704 98.128672,99.791659 0 0 0 0.082,2.21679 h 72.70313 c 13.41718,0 24.21875,-10.80156 24.21875,-24.21875 z"
       transform="scale(0.26458333)"
       inkscape:export-filename="/home/mattia/OneDrive/Documenti/Job/Adige Calculations/Logo/logoPNG_black_withLateralWords.png"
       inkscape:export-xdpi="500"
       inkscape:export-ydpi="500" />
    <path
       id="path1750"
       clip-path="none"
       style="fill:none;stroke:#000000;stroke-width:10.8918;stroke-miterlimit:4;stroke-dasharray:none;stroke-opacity:1"
       d="m 289.80273,83.988281 a 204.16547,204.25239 0 0 0 -22.85937,1.285157 204.16547,204.25239 0 0 0 -22.57031,3.835937 204.16547,204.25239 0 0 0 -22.00196,6.341797 204.16547,204.25239 0 0 0 -21.15234,8.765628 204.16547,204.25239 0 0 0 -20.03711,11.07812 204.16547,204.25239 0 0 0 -18.67383,13.25586 204.16547,204.25239 0 0 0 -17.07031,15.26172 204.16547,204.25239 0 0 0 -15.25781,17.08008 204.16547,204.25239 0 0 0 -13.24805,18.67969 204.16547,204.25239 0 0 0 -11.07422,20.04687 204.16547,204.25239 0 0 0 -8.761717,21.16211 204.16547,204.25239 0 0 0 -6.339844,22.00977 204.16547,204.25239 0 0 0 -3.833984,22.58203 204.16547,204.25239 0 0 0 -1.283203,22.86718 204.16547,204.25239 0 0 0 0.345703,6.14844 h 55.099605 a 153.3463,155.41989 0 0 1 -0.21289,-3.57031 153.3463,155.41989 0 0 1 1.11719,-18.73438 153.3463,155.41989 0 0 1 3.33789,-18.46093 153.3463,155.41989 0 0 1 5.50977,-17.91797 153.3463,155.41989 0 0 1 7.59961,-17.11524 153.3463,155.41989 0 0 1 9.58007,-16.06054 153.3463,155.41989 0 0 1 11.41993,-14.77344 153.3463,155.41989 0 0 1 13.09375,-13.27148 153.3463,155.41989 0 0 1 14.57617,-11.57422 153.3463,155.41989 0 0 1 15.84765,-9.70899 153.3463,155.41989 0 0 1 16.88672,-7.70312 153.3463,155.41989 0 0 1 17.67969,-5.58399 153.3463,155.41989 0 0 1 18.21289,-3.38281 153.3463,155.41989 0 0 1 16.92774,-1.03711 V 84.044922 a 204.16547,204.25239 0 0 0 -2.85743,-0.05664 z"
       transform="scale(0.26458333)"
       inkscape:export-filename="/home/mattia/OneDrive/Documenti/Job/Adige Calculations/Logo/logoPNG_black_withLateralWords.png"
       inkscape:export-xdpi="500"
       inkscape:export-ydpi="500" />
    <path
       id="path1747"
       clip-path="none"
       style="fill:none;stroke:#000000;stroke-width:10.8918;stroke-miterlimit:4;stroke-dasharray:none;stroke-opacity:1"
       d="m 213.52539,39.421875 a 225.80957,220.91273 0 0 0 -0.0801,0.01563 225.80957,220.91273 0 0 0 -12.26562,3.095703 225.80957,220.91273 0 0 0 -12.06836,3.761719 225.80957,220.91273 0 0 0 -11.83203,4.419922 225.80957,220.91273 0 0 0 -11.5625,5.060547 225.80957,220.91273 0 0 0 -11.25391,5.6875 225.80957,220.91273 0 0 0 -10.9082,6.296875 225.80957,220.91273 0 0 0 -10.53125,6.884765 225.80957,220.91273 0 0 0 -10.1211,7.451172 225.80957,220.91273 0 0 0 -9.67773,7.994141 225.80957,220.91273 0 0 0 -9.20313,8.513672 225.80957,220.91273 0 0 0 -8.703121,9.003909 225.80957,220.91273 0 0 0 -8.171875,9.4668 225.80957,220.91273 0 0 0 -7.615234,9.90234 225.80957,220.91273 0 0 0 -7.037109,10.30274 225.80957,220.91273 0 0 0 -6.435547,10.67187 225.80957,220.91273 0 0 0 -5.814453,11.00977 225.80957,220.91273 0 0 0 -5.173829,11.31054 225.80957,220.91273 0 0 0 -4.515624,11.57813 225.80957,220.91273 0 0 0 -3.847657,11.80469 225.80957,220.91273 0 0 0 -2.271484,8.62109 v 67.89453 c 0,13.41719 10.801563,24.21875 24.21875,24.21875 h 17.330078 a 204.16547,204.25239 0 0 1 -0.345703,-6.14844 204.16547,204.25239 0 0 1 1.283203,-22.86718 204.16547,204.25239 0 0 1 3.833984,-22.58203 204.16547,204.25239 0 0 1 6.339844,-22.00977 204.16547,204.25239 0 0 1 8.761717,-21.16212 204.16547,204.25239 0 0 1 11.07422,-20.04687 204.16547,204.25239 0 0 1 13.24805,-18.67969 204.16547,204.25239 0 0 1 15.25781,-17.08008 204.16547,204.25239 0 0 1 17.07031,-15.26172 204.16547,204.25239 0 0 1 18.67383,-13.25586 204.16547,204.25239 0 0 1 20.03711,-11.07812 204.16547,204.25239 0 0 1 21.15234,-8.765623 204.16547,204.25239 0 0 1 22.00196,-6.341797 204.16547,204.25239 0 0 1 22.57031,-3.835937 204.16547,204.25239 0 0 1 22.85937,-1.285157 204.16547,204.25239 0 0 1 2.85743,0.05664 V 63.640625 c 0,-13.417187 -10.80157,-24.21875 -24.21875,-24.21875 z"
       transform="scale(0.26458333)"
       inkscape:export-filename="/home/mattia/OneDrive/Documenti/Job/Adige Calculations/Logo/logoPNG_black_withLateralWords.png"
       inkscape:export-xdpi="500"
       inkscape:export-ydpi="500" />
    <text
       xml:space="preserve"
       transform="matrix(0.62750251,0,0,0.66588016,-103.33738,-506.56426)"
       id="text8591"
       style="font-style:normal;font-weight:normal;font-size:64px;line-height:1.25;font-family:sans-serif;letter-spacing:-0.196471px;word-spacing:0px;white-space:pre;shape-inside:url(#rect8593);fill:#000000;fill-opacity:1;stroke:none" />
    <text
       xml:space="preserve"
       style="font-style:normal;font-weight:normal;font-size:10.5833px;line-height:1.25;font-family:sans-serif;fill:#000000;fill-opacity:1;stroke:none;stroke-width:0.264583"
       x="123.42812"
       y="118.00417"
       id="text17302"><tspan
         id="tspan17300"
         style="stroke-width:0.264583" /></text>
    <text
       xml:space="preserve"
       style="font-style:normal;font-weight:normal;font-size:28.2222px;line-height:1.25;font-family:sans-serif;fill:#ffffff;fill-opacity:1;stroke:#ffffff;stroke-width:0.509939"
       x="94.550232"
       y="51.276726"
       id="text28274"
       transform="scale(0.97897772,1.0214737)"
       inkscape:export-filename="/home/mattia/OneDrive/Documenti/Job/Adige Calculations/Logo/logoPNG_black_withLateralWords.png"
       inkscape:export-xdpi="500"
       inkscape:export-ydpi="500"><tspan
         id="tspan28272"
         style="font-style:normal;font-variant:normal;font-weight:normal;font-stretch:normal;font-size:28.2222px;font-family:'URW Gothic';-inkscape-font-specification:'URW Gothic';fill:#ffffff;stroke:#ffffff;stroke-width:0.509939"
         x="94.550232"
         y="51.276726">A<tspan
   style="font-size:30.8681px;fill:#ffffff;stroke:#ffffff"
   id="tspan17782">δ</tspan>ige</tspan></text>
    <text
       xml:space="preserve"
       transform="matrix(0.26458333,0,0,0.26458333,83.147749,-52.794711)"
       id="text7902"
       style="font-style:normal;font-weight:normal;font-size:20px;line-height:1.25;font-family:sans-serif;white-space:pre;shape-inside:url(#rect7904);fill:#ffffff;fill-opacity:1;stroke:#ffffff"
       inkscape:export-filename="/home/mattia/OneDrive/Documenti/Job/Adige Calculations/Logo/logoPNG_black_withLateralWords.png"
       inkscape:export-xdpi="500"
       inkscape:export-ydpi="500"><tspan
         x="40.625"
         y="421.60156"
         id="tspan2"><tspan
           style="font-family:Consolas;-inkscape-font-specification:Consolas"
           id="tspan1">calculations</tspan></tspan></text>
  </g>
</svg>
